<?xml version="1.0" standalone="no"?><!DOCTYPE svg PUBLIC "-//W3C//DTD SVG 1.1//EN" "http://www.w3.org/Graphics/SVG/1.1/DTD/svg11.dtd" ><svg xmlns="http://www.w3.org/2000/svg"><metadata>Generated by Glyphter</metadata><defs><font id="Glyphter" horiz-adv-x="0"><font-face units-per-em="1024" ascent="1024" descent="0" font-family="Glyphter" font-weight="normal" /><missing-glyph horiz-adv-x="0" /><glyph unicode="&#x0041;" d="M885.492,814.583C885.492,814.583,823.881,814.583,823.881,814.583C823.881,814.583,791.942,885.873,791.942,885.873C762.612,951.214,714.898,951.214,676.571,951.214C676.571,951.214,659.115,951.166,659.115,951.166C659.115,951.166,347.404,951.214,347.404,951.214C309.077,951.214,261.364,951.214,232.058,885.825C232.058,885.825,200.119,814.583,200.119,814.583C200.119,814.583,138.508,814.583,138.508,814.583C62.123,814.583,0,746.268,0,662.251C0,662.251,0,225.881,0,225.881C0,141.864,62.123,73.5,138.508,73.5C138.508,73.5,885.492,73.5,885.492,73.5C961.877,73.5,1024,141.864,1024,225.881C1024,225.881,1024,662.251,1024,662.251C1024,746.268,961.877,814.583,885.492,814.583C885.492,814.583,885.492,814.583,885.492,814.583C885.492,814.583,885.492,814.583,885.492,814.583M512,231.952C379.953,231.952,272.555,338.18,272.555,468.764C272.555,599.324,379.953,705.576,512,705.576C644.047,705.576,751.445,599.324,751.445,468.764C751.445,338.18,644.047,231.952,512,231.952C512,231.952,512,231.952,512,231.952C512,231.952,512,231.952,512,231.952M512,648.208C411.941,648.208,330.533,567.702,330.533,468.764C330.533,369.802,411.941,289.296,512,289.296C612.059,289.296,693.467,369.802,693.467,468.764C693.467,567.702,612.059,648.208,512,648.208" class="sdk-icon_camera_fill"/><glyph unicode="&#x0042;" d="M886.013,83C886.013,83,139.011,83,139.011,83C62.624,83,0.5,149.854,0.5,231.971C0.5,231.971,0.5,658.672,0.5,658.672C0.5,740.814,62.624,807.644,139.011,807.644C139.011,807.644,200.599,807.644,200.599,807.644C200.599,807.644,232.563,877.302,232.563,877.302C261.87,941.23,309.585,941.23,347.912,941.23C347.912,941.23,659.63,941.206,659.63,941.206C659.63,941.206,677.088,941.23,677.088,941.23C715.415,941.23,763.13,941.23,792.461,877.302C792.461,877.302,824.376,807.644,824.376,807.644C824.376,807.644,886.013,807.644,886.013,807.644C962.4,807.644,1024.5,740.814,1024.5,658.672C1024.5,658.672,1024.5,231.971,1024.5,231.971C1024.5,149.854,962.4,83,886.013,83C886.013,83,886.013,83,886.013,83C886.013,83,886.013,83,886.013,83M139.011,745.251C94.613,745.251,58.479,706.411,58.479,658.672C58.479,658.672,58.479,231.971,58.479,231.971C58.479,184.257,94.613,145.368,139.011,145.368C139.011,145.368,886.013,145.368,886.013,145.368C930.387,145.368,966.521,184.257,966.521,231.971C966.521,231.971,966.521,658.672,966.521,658.672C966.521,706.411,930.387,745.251,886.013,745.251C886.013,745.251,788.34,745.251,788.34,745.251C788.34,745.251,740.431,849.702,740.431,849.702C728.289,876.156,717.585,878.862,677.088,878.862C677.088,878.862,365.37,878.789,365.37,878.789C365.37,878.789,347.912,878.862,347.912,878.862C307.439,878.862,296.711,876.156,284.594,849.702C284.594,849.702,236.66,745.251,236.66,745.251C236.66,745.251,139.011,745.251,139.011,745.251C139.011,745.251,139.011,745.251,139.011,745.251C139.011,745.251,139.011,745.251,139.011,745.251M512.512,229.972C380.462,229.972,273.061,338.787,273.061,472.568C273.061,606.35,380.462,715.189,512.512,715.189C644.563,715.189,751.963,606.35,751.963,472.568C751.963,338.787,644.563,229.972,512.512,229.972C512.512,229.972,512.512,229.972,512.512,229.972C512.512,229.972,512.512,229.972,512.512,229.972M512.512,656.405C412.45,656.405,331.04,573.922,331.04,472.568C331.04,371.19,412.45,288.731,512.512,288.731C612.574,288.731,693.984,371.19,693.984,472.568C693.984,573.922,612.574,656.405,512.512,656.405C512.512,656.405,512.512,656.405,512.512,656.405C512.512,656.405,512.512,656.405,512.512,656.405" class="sdk-icon_camera_stroke"/><glyph unicode="&#x0043;" d="M584.395,512.487C584.395,512.487,1008.986,937.027,1008.986,937.027C1029.005,957.046,1029.005,989.454,1008.986,1009.422C988.967,1029.441,956.61,1029.441,936.591,1009.422C936.591,1009.422,512,584.831,512,584.831C512,584.831,87.409,1009.422,87.409,1009.422C67.39,1029.441,35.033,1029.441,15.014,1009.422C-5.005,989.454,-5.005,957.046,15.014,937.027C15.014,937.027,439.605,512.487,439.605,512.487C439.605,512.487,15.014,87.896,15.014,87.896C-5.005,67.878,-5.005,35.469,15.014,15.45C24.998,5.466,38.105,0.5,51.212,0.5C64.318,0.5,77.425,5.466,87.409,15.45C87.409,15.45,512,440.041,512,440.041C512,440.041,936.591,15.45,936.591,15.45C946.575,5.466,959.682,0.5,972.788,0.5C985.895,0.5,999.002,5.466,1008.986,15.45C1029.005,35.469,1029.005,67.878,1008.986,87.896C1008.986,87.896,584.395,512.487,584.395,512.487" class="sdk-icon_close_fill"/><glyph unicode="&#x0044;" d="M584.395,512.487C584.395,512.487,1008.986,937.027,1008.986,937.027C1029.005,957.046,1029.005,989.454,1008.986,1009.422C988.967,1029.441,956.61,1029.441,936.591,1009.422C936.591,1009.422,512,584.831,512,584.831C512,584.831,87.409,1009.422,87.409,1009.422C67.39,1029.441,35.033,1029.441,15.014,1009.422C-5.005,989.454,-5.005,957.046,15.014,937.027C15.014,937.027,439.605,512.487,439.605,512.487C439.605,512.487,15.014,87.896,15.014,87.896C-5.005,67.878,-5.005,35.469,15.014,15.45C24.998,5.466,38.105,0.5,51.212,0.5C64.318,0.5,77.425,5.466,87.409,15.45C87.409,15.45,512,440.041,512,440.041C512,440.041,936.591,15.45,936.591,15.45C946.575,5.466,959.682,0.5,972.788,0.5C985.895,0.5,999.002,5.466,1008.986,15.45C1029.005,35.469,1029.005,67.878,1008.986,87.896C1008.986,87.896,584.395,512.487,584.395,512.487" class="sdk-icon_close_stroke"/><glyph unicode="&#x0045;" d="M874.273,874.044C777.577,970.74,648.998,1024,512.253,1024C375.484,1024,246.93,970.74,150.185,874.044C-49.399,674.412,-49.399,349.588,150.209,149.98C246.93,53.26,375.484,0,512.253,0C648.998,0,777.577,53.26,874.273,149.956C970.994,246.677,1024.253,375.255,1024.253,512C1024.253,648.769,970.994,777.323,874.273,874.044C874.273,874.044,874.273,874.044,874.273,874.044C874.273,874.044,874.273,874.044,874.273,874.044M673.934,350.32C668.79,345.152,662.014,342.568,655.238,342.568C648.486,342.568,641.71,345.152,636.566,350.32C636.566,350.32,510.669,476.242,510.669,476.242C510.669,476.242,386.331,351.904,386.331,351.904C381.188,346.736,374.412,344.153,367.635,344.153C360.884,344.153,354.107,346.736,348.964,351.904C338.629,362.19,338.629,378.96,348.964,389.271C348.964,389.271,473.302,513.609,473.302,513.609C473.302,513.609,350.548,636.338,350.548,636.338C340.238,646.648,340.238,663.394,350.548,673.705C360.835,684.04,377.629,684.04,387.916,673.705C387.916,673.705,510.669,550.976,510.669,550.976C510.669,550.976,634.982,675.289,634.982,675.289C645.268,685.624,662.087,685.624,672.349,675.289C682.684,665.003,682.684,648.233,672.349,637.922C672.349,637.922,548.036,513.609,548.036,513.609C548.036,513.609,673.934,387.687,673.934,387.687C684.269,377.4,684.269,360.63,673.934,350.32C673.934,350.32,673.934,350.32,673.934,350.32C673.934,350.32,673.934,350.32,673.934,350.32" class="sdk-icon_closecircle_fill"/><glyph unicode="&#x0046;" d="M512.375,1024C375.574,1024,246.988,970.752,150.22,874.033C-49.411,674.426,-49.411,349.598,150.245,149.943C246.988,53.248,375.574,0,512.375,0C649.152,0,777.762,53.248,874.481,149.967C971.225,246.662,1024.497,375.247,1024.497,512C1024.497,648.753,971.225,777.338,874.505,874.033C777.762,970.752,649.152,1024,512.375,1024C512.375,1024,512.375,1024,512.375,1024C512.375,1024,512.375,1024,512.375,1024M837.105,187.343C750.358,100.62,635.06,52.882,512.375,52.882C389.714,52.882,274.393,100.62,187.645,187.343C8.616,366.373,8.616,657.627,187.645,836.657C274.393,923.355,389.714,971.118,512.375,971.118C635.06,971.118,750.358,923.355,837.105,836.657C923.828,749.934,971.59,634.636,971.59,512C971.59,389.364,923.828,274.066,837.105,187.343C837.105,187.343,837.105,187.343,837.105,187.343C837.105,187.343,837.105,187.343,837.105,187.343M548.678,513.585C548.678,513.585,674.777,637.903,674.777,637.903C685.26,648.241,685.26,664.966,674.777,675.304C664.342,685.617,647.299,685.617,636.864,675.304C636.864,675.304,510.766,550.985,510.766,550.985C510.766,550.985,386.277,673.719,386.277,673.719C375.793,684.032,358.775,684.032,348.364,673.719C337.881,663.381,337.881,646.656,348.34,636.318C348.34,636.318,472.829,513.585,472.829,513.585C472.829,513.585,346.731,389.266,346.731,389.266C336.247,378.929,336.247,362.203,346.731,351.866C351.948,346.722,358.824,344.137,365.675,344.137C372.55,344.137,379.426,346.722,384.643,351.866C384.643,351.866,510.742,476.184,510.742,476.184C510.742,476.184,638.449,350.281,638.449,350.281C643.691,345.137,650.566,342.552,657.417,342.552C664.268,342.552,671.168,345.137,676.386,350.281C686.845,360.619,686.845,377.344,676.41,387.682C676.41,387.682,548.678,513.585,548.678,513.585" class="sdk-icon_closecircle_stroke"/><glyph unicode="&#x0047;" d="M687.283,863.668C687.283,863.668,153.738,330.086,153.738,330.086C153.738,330.086,325.077,158.748,325.077,158.748C325.077,158.748,858.622,692.293,858.622,692.293C858.622,692.293,687.283,863.668,687.283,863.668M96.723,273.071C96.723,273.071,86.08,262.465,86.08,262.465C86.08,262.465,1.783,32.465,1.783,32.465C-3.849,17.105,4.489,5,18.02,5C20.946,5,24.128,5.585,27.456,6.792C27.456,6.792,257.456,91.126,257.456,91.126C257.456,91.126,268.061,101.732,268.061,101.732C268.061,101.732,96.723,273.071,96.723,273.071M1009.37,928.729C1009.37,928.729,937.982,1000.117,937.982,1000.117C924.926,1013.209,907.079,1019.536,887.769,1019.536C860.67,1019.536,830.681,1007.065,806.946,983.33C806.946,983.33,744.335,920.683,744.335,920.683C744.335,920.683,915.674,749.344,915.674,749.344C915.674,749.344,996.753,830.424,996.753,830.424C1027.4,861.071,1033.032,905.067,1009.37,928.729" class="sdk-icon_edit_fill"/><glyph unicode="&#x0048;" d="M1023.978,814.257C1023.43,843.661,1011.544,871.456,990.478,892.485C990.478,892.485,904.241,978.722,904.241,978.722C877.982,1005.017,843.202,1019.5,806.374,1019.5C770.899,1019.5,737.801,1005.931,713.188,981.318C713.188,981.318,57.486,325.58,57.486,325.58C57.486,325.58,1.677,85.374,1.677,85.374C-2.785,65.881,1.75,45.766,14.184,30.15C26.655,14.497,45.198,5.5,65.093,5.5C70.067,5.5,75.04,6.085,79.941,7.219C79.941,7.219,320.11,62.991,320.11,62.991C320.11,62.991,925.928,668.809,925.928,668.809C925.928,668.846,925.965,668.846,925.965,668.846C925.965,668.846,926.001,668.882,926.001,668.882C926.001,668.882,992.38,735.297,992.38,735.297C1013.336,756.217,1024.563,784.268,1023.978,814.257C1023.978,814.257,1023.978,814.257,1023.978,814.257C1023.978,814.257,1023.978,814.257,1023.978,814.257M815.115,669.248C815.115,669.248,663.742,820.62,663.742,820.62C663.742,820.62,691.172,848.049,691.172,848.049C691.172,848.049,842.544,696.677,842.544,696.677C842.544,696.677,815.115,669.248,815.115,669.248C815.115,669.248,815.115,669.248,815.115,669.248C815.115,669.248,815.115,669.248,815.115,669.248M300.215,154.385C300.215,154.385,148.843,305.757,148.843,305.757C148.843,305.757,608.116,765.031,608.116,765.031C608.116,765.031,759.488,613.658,759.488,613.658C759.488,613.658,300.215,154.385,300.215,154.385C300.215,154.385,300.215,154.385,300.215,154.385C300.215,154.385,300.215,154.385,300.215,154.385M115.526,227.822C115.526,227.822,222.317,121.068,222.317,121.068C222.317,121.068,83.269,88.738,83.269,88.738C83.269,88.738,115.526,227.822,115.526,227.822C115.526,227.822,115.526,227.822,115.526,227.822C115.526,227.822,115.526,227.822,115.526,227.822M936.79,790.924C936.79,790.924,898.17,752.303,898.17,752.303C898.17,752.303,746.798,903.676,746.798,903.676C746.798,903.676,768.778,925.655,768.778,925.655C789.258,946.099,826.671,945.002,848.615,923.095C848.615,923.095,934.888,836.858,934.888,836.858C948.054,823.656,948.896,803.066,936.79,790.924C936.79,790.924,936.79,790.924,936.79,790.924C936.79,790.924,936.79,790.924,936.79,790.924" class="sdk-icon_edit_stroke"/><glyph unicode="&#x0049;" d="M1024.5,356.306C1024.5,347.863,1024.031,339.889,1023.327,331.68C1022.858,328.162,1022.155,324.644,1021.686,320.891C1020.982,316.669,1020.513,312.213,1019.575,307.991C1018.637,303.77,1017.464,299.548,1016.291,295.326C1015.353,291.808,1014.415,288.29,1013.477,285.006C1012.069,280.785,1010.428,276.563,1008.786,272.341C1007.379,269.058,1006.206,265.774,1004.799,262.725C1003.157,258.738,1001.046,254.751,999.17,250.998C997.293,247.715,995.652,244.431,993.775,241.148C991.899,237.629,989.554,234.111,987.208,230.593C985.097,227.31,982.752,223.792,980.172,220.273C978.061,217.224,975.716,214.175,973.37,211.361C970.321,207.608,967.507,204.09,964.223,200.807C961.878,197.992,959.298,195.178,956.718,192.598C952.027,187.907,947.336,182.982,942.177,178.525C942.177,178.525,1005.268,56.096,1005.268,56.096C1008.786,49.763,1007.613,42.023,1002.922,36.629C999.404,32.876,994.948,31,990.023,31C987.912,31,985.801,31.469,983.69,32.173C983.69,32.173,824.907,95.733,824.907,95.733C824.907,95.733,824.672,95.733,824.672,95.733C824.672,95.733,818.34,98.313,818.34,98.313C811.773,95.733,805.205,93.388,798.404,91.277C794.417,89.635,790.195,88.228,785.973,86.82C780.11,85.179,774.012,83.771,768.148,82.364C764.161,81.426,760.174,80.253,755.952,79.55C749.385,78.142,742.818,77.439,736.016,76.501C732.498,76.032,729.215,75.328,725.462,75.093C715.377,73.921,705.292,73.452,695.206,73.452C695.206,73.452,694.737,73.452,694.737,73.452C546.743,73.452,418.919,172.662,389.367,300.017C387.49,308.695,385.849,317.373,384.676,326.285C383.503,336.136,382.8,346.221,382.8,356.306C382.8,506.646,529.856,633.767,703.65,633.767C738.596,633.767,772.37,628.607,804.033,619.225C930.684,581.934,1024.5,476.625,1024.5,356.306M807.551,662.146C807.551,662.146,807.551,658.863,807.551,658.863C774.481,667.541,739.534,672.466,703.65,672.466C507.34,672.466,341.755,529.162,341.755,359.355C341.755,349.974,342.224,340.592,343.162,331.445C341.521,331.68,339.644,331.914,338.003,332.149C333.077,333.087,328.152,334.494,322.992,335.667C315.487,337.309,307.981,338.951,300.476,341.061C295.082,342.703,289.922,344.579,284.762,346.221C276.319,348.801,267.875,351.381,259.666,354.665C259.666,354.665,251.692,351.616,251.692,351.616C251.692,351.616,51.63,275.859,51.63,275.859C49.05,274.921,46.47,274.452,43.655,274.452C37.792,274.452,31.928,276.798,27.707,281.254C21.609,287.586,20.436,296.733,24.423,304.473C24.423,304.473,103.932,450.357,103.932,450.357C97.599,455.751,91.736,461.38,85.638,467.009C82.354,470.293,79.305,473.576,76.022,476.86C72.269,480.847,68.516,485.069,64.998,489.29C61.949,493.043,58.9,496.561,56.086,500.079C53.037,504.301,49.988,508.288,47.173,512.51C44.359,516.732,41.544,520.719,38.964,524.94C36.619,528.693,34.508,532.68,32.397,536.667C29.817,541.358,27.238,545.814,25.127,550.74C23.25,554.492,21.843,558.245,20.201,562.232C18.325,567.158,16.214,572.083,14.338,577.243C12.931,581.23,11.992,585.452,10.82,589.673C9.413,594.599,7.771,599.524,6.598,604.684C5.66,609.844,4.956,615.004,4.018,620.164C3.314,624.385,2.611,628.607,2.142,632.829C0.969,642.679,0.5,652.295,0.5,662.146C0.5,841.569,185.317,993.082,403.908,993.082C622.734,993.082,807.551,841.569,807.551,662.146" class="sdk-icon_emptyroom_fill"/><glyph unicode="&#x004a;" d="M40.657,311.511C33.885,311.511,27.299,314.397,22.668,319.703C16.105,327.29,14.964,338.135,19.828,346.885C19.828,346.885,94.557,481.379,94.557,481.379C33.42,537.21,0,613.195,0,697.466C0,872.919,172.567,1015.651,384.652,1015.651C596.736,1015.651,769.303,872.919,769.303,697.466C769.303,697.466,721.664,697.466,721.664,697.466C721.664,846.667,570.484,968.035,384.652,968.035C198.819,968.035,47.616,846.667,47.616,697.466C47.616,620.037,79.453,553.617,139.706,505.419C148.783,498.135,151.296,485.405,145.641,475.258C145.641,475.258,93.324,381.096,93.324,381.096C93.324,381.096,250.95,441.722,250.95,441.722C255.884,443.607,261.329,443.84,266.426,442.257C281.647,437.626,309.969,429.015,330.054,426.269C330.054,426.269,323.607,379.048,323.607,379.048C304.081,381.725,281.251,388.078,260.399,394.339C260.399,394.339,49.199,313.093,49.199,313.093C46.429,312.023,43.52,311.511,40.657,311.511M983.343,8.5C980.364,8.5,977.361,9.059,974.499,10.199C974.499,10.199,815.313,73.896,815.313,73.896C776.564,58.071,735.86,50.065,694.156,50.065C524.986,50.065,382.068,180.02,382.068,333.876C382.068,484.823,529.059,612.357,703.023,612.357C877.009,612.357,1024,484.823,1024,333.876C1024,265.989,996.794,205.643,945.082,158.237C945.082,158.237,1004.521,43.246,1004.521,43.246C1009.059,34.403,1007.686,23.651,1000.983,16.32C996.375,11.223,989.929,8.5,983.343,8.5C983.343,8.5,983.343,8.5,983.343,8.5C983.343,8.5,983.343,8.5,983.343,8.5M815.011,123.467C818.013,123.467,821.015,122.909,823.855,121.768C823.855,121.768,932.864,78.179,932.864,78.179C932.864,78.179,894.115,153.117,894.115,153.117C888.902,163.194,891.532,175.552,900.399,182.65C950.807,222.981,976.361,273.856,976.361,333.876C976.361,456.849,848.64,564.741,703.023,564.741C557.428,564.741,429.684,456.849,429.684,333.876C429.684,205.876,550.796,97.704,694.156,97.704C732.532,97.704,769.955,105.687,805.353,121.419C808.425,122.792,811.729,123.467,815.011,123.467C815.011,123.467,815.011,123.467,815.011,123.467C815.011,123.467,815.011,123.467,815.011,123.467" class="sdk-icon_emptyroom_stroke"/><glyph unicode="&#x004b;" d="M1012.389,201.94C1012.389,201.94,588.009,908.985,588.009,908.985C572.137,935.426,543.94,951.225,512.488,951.225C481.073,951.225,452.876,935.426,437.004,908.985C437.004,908.985,12.624,201.94,12.624,201.94C-3.212,175.572,-3.541,143.937,11.636,117.313C27.106,90.286,56.4,73.5,88.108,73.5C88.108,73.5,936.905,73.5,936.905,73.5C968.613,73.5,997.87,90.286,1013.34,117.313C1028.554,143.937,1028.189,175.572,1012.389,201.94C1012.389,201.94,1012.389,201.94,1012.389,201.94C1012.389,201.94,1012.389,201.94,1012.389,201.94M475.843,656.31C475.843,676.388,492.227,692.662,512.415,692.662C532.639,692.662,548.987,676.388,548.987,656.31C548.987,656.31,548.987,415.959,548.987,415.959C548.987,395.881,532.639,379.607,512.415,379.607C492.227,379.607,475.843,395.881,475.843,415.959C475.843,415.959,475.843,656.31,475.843,656.31C475.843,656.31,475.843,656.31,475.843,656.31C475.843,656.31,475.843,656.31,475.843,656.31M512.488,224.249C489.923,224.249,471.637,241.84,471.637,263.564C471.637,285.251,489.923,302.842,512.488,302.842C535.053,302.842,553.339,285.251,553.339,263.564C553.339,241.84,535.053,224.249,512.488,224.249C512.488,224.249,512.488,224.249,512.488,224.249C512.488,224.249,512.488,224.249,512.488,224.249" class="sdk-icon_error_fill"/><glyph unicode="&#x004c;" d="M936.405,73.5C936.405,73.5,87.572,73.5,87.572,73.5C55.864,73.5,26.606,90.286,11.173,117.313C-4.041,143.974,-3.712,175.609,12.124,201.94C12.124,201.94,436.504,909.021,436.504,909.021C452.34,935.426,480.573,951.225,511.988,951.225C543.404,951.225,571.637,935.463,587.473,909.021C587.473,909.021,1011.889,201.94,1011.889,201.94C1027.689,175.609,1028.054,143.974,1012.84,117.313C997.37,90.286,968.113,73.5,936.405,73.5C936.405,73.5,936.405,73.5,936.405,73.5C936.405,73.5,936.405,73.5,936.405,73.5M511.988,878.52C509.428,878.52,502.992,877.862,499.335,871.791C499.335,871.791,74.918,164.71,74.918,164.71C72.065,159.956,73.272,155.823,74.772,153.19C75.978,151.106,79.599,146.205,87.572,146.205C87.572,146.205,936.405,146.205,936.405,146.205C944.341,146.205,948.035,151.106,949.242,153.19C950.741,155.823,951.912,159.956,949.096,164.71C949.096,164.71,524.715,871.754,524.715,871.754C521.022,877.862,514.585,878.52,511.988,878.52C511.988,878.52,511.988,878.52,511.988,878.52C511.988,878.52,511.988,878.52,511.988,878.52M511.915,379.643C491.691,379.643,475.343,395.918,475.343,415.959C475.343,415.959,475.343,656.346,475.343,656.346C475.343,676.387,491.691,692.662,511.915,692.662C532.14,692.662,548.487,676.387,548.487,656.346C548.487,656.346,548.487,415.959,548.487,415.959C548.487,395.918,532.14,379.643,511.915,379.643M511.988,302.879C489.424,302.879,471.138,285.288,471.138,263.564C471.138,241.877,489.424,224.286,511.988,224.286C534.553,224.286,552.839,241.877,552.839,263.564C552.839,285.288,534.553,302.879,511.988,302.879" class="sdk-icon_error_stroke"/><glyph unicode="&#x004d;" d="M1013.707,173.007C1013.707,173.007,577.825,927.967,577.825,927.967C564.078,951.764,539.475,965.962,512.004,965.962C484.534,965.962,459.931,951.764,446.184,927.967C446.184,927.967,10.302,173.007,10.302,173.007C-3.446,149.187,-3.422,120.791,10.302,96.995C24.049,73.198,48.652,59,76.122,59C76.122,59,947.887,59,947.887,59C975.357,59,999.96,73.198,1013.707,96.995C1027.431,120.815,1027.431,149.21,1013.707,173.007C1013.707,173.007,1013.707,173.007,1013.707,173.007C1013.707,173.007,1013.707,173.007,1013.707,173.007M488.231,666.201C488.231,679.285,498.85,689.903,511.933,689.903C525.017,689.903,535.635,679.285,535.635,666.201C535.635,666.201,535.635,370.754,535.635,370.754C535.635,357.647,525.017,347.052,511.933,347.052C498.85,347.052,488.231,357.647,488.231,370.754C488.231,370.754,488.231,666.201,488.231,666.201C488.231,666.201,488.231,666.201,488.231,666.201C488.231,666.201,488.231,666.201,488.231,666.201M512.004,212.092C492.806,212.092,477.257,227.641,477.257,246.839C477.257,266.038,492.806,281.587,512.004,281.587C531.203,281.587,546.752,266.038,546.752,246.839C546.752,227.641,531.203,212.092,512.004,212.092C512.004,212.092,512.004,212.092,512.004,212.092C512.004,212.092,512.004,212.092,512.004,212.092" class="sdk-icon_errorlarge_fill"/><glyph unicode="&#x004e;" d="M947.887,59C947.887,59,76.122,59,76.122,59C48.652,59,24.049,73.221,10.302,97.018C-3.422,120.815,-3.446,149.21,10.302,173.007C10.302,173.007,446.184,927.967,446.184,927.967C459.931,951.764,484.534,965.962,512.004,965.962C539.475,965.962,564.078,951.764,577.825,927.967C577.825,927.967,1013.707,173.007,1013.707,173.007C1027.431,149.21,1027.431,120.815,1013.707,97.018C999.96,73.221,975.357,59,947.887,59C947.887,59,947.887,59,947.887,59C947.887,59,947.887,59,947.887,59M512.004,918.558C507.051,918.558,494.702,917.159,487.236,904.265C487.236,904.265,51.354,149.305,51.354,149.305C43.911,136.387,48.865,125.01,51.354,120.72C53.842,116.407,61.214,106.404,76.122,106.404C76.122,106.404,947.887,106.404,947.887,106.404C962.795,106.404,970.167,116.407,972.655,120.72C975.144,125.01,980.098,136.411,972.655,149.305C972.655,149.305,536.773,904.265,536.773,904.265C529.307,917.159,516.958,918.558,512.004,918.558C512.004,918.558,512.004,918.558,512.004,918.558C512.004,918.558,512.004,918.558,512.004,918.558M511.933,347.052C498.85,347.052,488.231,357.67,488.231,370.754C488.231,370.754,488.231,666.201,488.231,666.201C488.231,679.285,498.85,689.903,511.933,689.903C525.017,689.903,535.635,679.285,535.635,666.201C535.635,666.201,535.635,370.754,535.635,370.754C535.635,357.67,525.017,347.052,511.933,347.052M512.004,281.587C492.806,281.587,477.257,266.038,477.257,246.839C477.257,227.664,492.806,212.092,512.004,212.092C531.203,212.092,546.752,227.664,546.752,246.839C546.752,266.038,531.203,281.587,512.004,281.587" class="sdk-icon_errorlarge_stroke"/><glyph unicode="&#x004f;" d="M846.989,968.631C846.989,968.631,220.74,968.631,220.74,968.631C220.74,968.631,220.74,987.685,220.74,987.685C220.74,1007.762,204.137,1024,183.62,1024C163.103,1024,146.5,1007.762,146.5,987.685C146.5,987.685,146.5,36.315,146.5,36.315C146.5,16.274,163.103,0,183.62,0C204.137,0,220.74,16.274,220.74,36.315C220.74,36.315,220.74,409.051,220.74,409.051C220.74,409.051,846.989,409.051,846.989,409.051C864.068,409.051,877.892,422.583,877.892,439.296C877.892,439.296,877.892,938.386,877.892,938.386C877.892,955.099,864.068,968.631,846.989,968.631" class="sdk-icon_flag_fill"/><glyph unicode="&#x0050;" d="M847.026,968.594C847.026,968.594,220.74,968.594,220.74,968.594C220.74,968.594,220.74,987.685,220.74,987.685C220.74,1007.726,204.137,1024,183.62,1024C163.103,1024,146.5,1007.726,146.5,987.685C146.5,987.685,146.5,36.315,146.5,36.315C146.5,16.274,163.103,0,183.62,0C204.137,0,220.74,16.274,220.74,36.315C220.74,36.315,220.74,409.051,220.74,409.051C220.74,409.051,847.026,409.051,847.026,409.051C864.068,409.051,877.929,422.583,877.929,439.296C877.929,439.296,877.929,938.386,877.929,938.386C877.929,955.063,864.068,968.594,847.026,968.594C847.026,968.594,847.026,968.594,847.026,968.594C847.026,968.594,847.026,968.594,847.026,968.594M224.105,896C224.105,896,803.689,896,803.689,896C803.689,896,803.689,481.682,803.689,481.682C803.689,481.682,224.105,481.682,224.105,481.682C224.105,481.682,224.105,896,224.105,896C224.105,896,224.105,896,224.105,896" class="sdk-icon_flag_stroke"/><glyph unicode="&#x0051;" d="M6.207,488.537C6.207,488.537,6.207,456.982,6.207,456.982C6.207,456.982,0,456.982,0,456.982C0,456.982,0,532.934,0,532.934C0,532.934,26.134,532.934,26.134,532.934C34.1,532.934,40.263,530.911,44.629,526.859C48.995,522.807,51.175,517.442,51.175,510.77C51.175,504.017,48.995,498.627,44.629,494.593C40.263,490.56,34.1,488.537,26.134,488.537C26.134,488.537,6.207,488.537,6.207,488.537C6.207,488.537,6.207,488.537,6.207,488.537C6.207,488.537,6.207,488.537,6.207,488.537M6.207,493.865C6.207,493.865,26.134,493.865,26.134,493.865C32.397,493.865,37.096,495.454,40.244,498.633C43.391,501.818,44.968,505.826,44.968,510.657C44.968,515.532,43.404,519.572,40.269,522.788C37.14,526.005,32.429,527.613,26.134,527.613C26.134,527.613,6.207,527.613,6.207,527.613C6.207,527.613,6.207,493.865,6.207,493.865C6.207,493.865,6.207,493.865,6.207,493.865C6.207,493.865,6.207,493.865,6.207,493.865M57.84,486.037C57.84,494.355,60.121,501.171,64.675,506.486C69.236,511.813,75.267,514.47,82.781,514.47C90.326,514.47,96.375,511.813,100.93,506.486C105.491,501.171,107.765,494.355,107.765,486.037C107.765,486.037,107.765,484.316,107.765,484.316C107.765,475.973,105.497,469.144,100.961,463.842C96.419,458.54,90.395,455.889,82.881,455.889C75.299,455.889,69.236,458.54,64.675,463.842C60.121,469.144,57.84,475.973,57.84,484.316C57.84,484.316,57.84,486.037,57.84,486.037C57.84,486.037,57.84,486.037,57.84,486.037C57.84,486.037,57.84,486.037,57.84,486.037M64.104,484.341C64.104,477.814,65.756,472.323,69.06,467.875C72.365,463.434,76.97,461.204,82.881,461.204C88.692,461.204,93.253,463.434,96.576,467.875C99.9,472.323,101.558,477.814,101.558,484.341C101.558,484.341,101.558,486.069,101.558,486.069C101.558,492.489,99.887,497.942,96.551,502.427C93.209,506.907,88.623,509.149,82.781,509.149C76.938,509.149,72.365,506.907,69.06,502.427C65.756,497.942,64.104,492.489,64.104,486.069C64.104,486.069,64.104,484.341,64.104,484.341C64.104,484.341,64.104,484.341,64.104,484.341C64.104,484.341,64.104,484.341,64.104,484.341M128.678,475.295C128.678,475.295,130.814,465.224,130.814,465.224C130.814,465.224,131.129,465.224,131.129,465.224C131.129,465.224,133.792,475.295,133.792,475.295C133.792,475.295,145.785,513.428,145.785,513.428C145.785,513.428,151.163,513.428,151.163,513.428C151.163,513.428,163.155,475.295,163.155,475.295C163.155,475.295,165.869,464.96,165.869,464.96C165.869,464.96,166.183,464.96,166.183,464.96C166.183,464.96,168.533,475.295,168.533,475.295C168.533,475.295,178.811,513.428,178.811,513.428C178.811,513.428,185.275,513.428,185.275,513.428C185.275,513.428,168.847,456.982,168.847,456.982C168.847,456.982,163.526,456.982,163.526,456.982C163.526,456.982,151.005,495.586,151.005,495.586C151.005,495.586,148.549,505.342,148.549,505.342C148.549,505.342,148.241,505.342,148.241,505.342C148.241,505.342,145.735,495.586,145.735,495.586C145.735,495.586,133.422,456.982,133.422,456.982C133.422,456.982,128.05,456.982,128.05,456.982C128.05,456.982,111.673,513.428,111.673,513.428C111.673,513.428,118.137,513.428,118.137,513.428C118.137,513.428,128.678,475.295,128.678,475.295M218.916,455.889C211.855,455.889,205.987,458.49,201.307,463.71C196.633,468.924,194.296,475.533,194.296,483.531C194.296,483.531,194.296,486.401,194.296,486.401C194.296,494.474,196.614,501.171,201.257,506.486C205.899,511.813,211.528,514.47,218.131,514.47C225.054,514.47,230.494,512.278,234.458,507.893C238.429,503.514,240.408,497.672,240.408,490.366C240.408,490.366,240.408,485.045,240.408,485.045C240.408,485.045,200.553,485.045,200.553,485.045C200.553,485.045,200.553,483.537,200.553,483.537C200.553,477.185,202.243,471.877,205.617,467.611C208.984,463.34,213.419,461.204,218.916,461.204C222.811,461.204,226.134,461.744,228.88,462.824C231.625,463.905,233.975,465.45,235.922,467.467C235.922,467.467,238.579,463.195,238.579,463.195C236.462,460.952,233.774,459.181,230.519,457.861C227.271,456.548,223.402,455.889,218.916,455.889C218.916,455.889,218.916,455.889,218.916,455.889C218.916,455.889,218.916,455.889,218.916,455.889M218.131,509.149C213.507,509.149,209.631,507.384,206.502,503.872C203.368,500.348,201.546,495.938,201.024,490.623C201.024,490.623,201.125,490.366,201.125,490.366C201.125,490.366,234.201,490.366,234.201,490.366C234.201,490.366,234.201,491.93,234.201,491.93C234.201,496.817,232.756,500.913,229.872,504.205C226.982,507.503,223.069,509.149,218.131,509.149C218.131,509.149,218.131,509.149,218.131,509.149C218.131,509.149,218.131,509.149,218.131,509.149M278.748,508.056C278.748,508.056,274.105,508.364,274.105,508.364C270.179,508.364,266.95,507.265,264.431,505.053C261.912,502.842,260.109,499.808,259.028,495.95C259.028,495.95,259.028,456.982,259.028,456.982C259.028,456.982,252.771,456.982,252.771,456.982C252.771,456.982,252.771,513.428,252.771,513.428C252.771,513.428,258.249,513.428,258.249,513.428C258.249,513.428,259.028,504.036,259.028,504.036C259.028,504.036,259.028,503.407,259.028,503.407C260.668,506.888,262.86,509.602,265.605,511.549C268.351,513.49,271.624,514.47,275.412,514.47C276.21,514.47,276.983,514.408,277.73,514.288C278.478,514.163,279.093,514.031,279.583,513.892C279.583,513.892,278.748,508.056,278.748,508.056M310.888,455.889C303.826,455.889,297.959,458.49,293.279,463.71C288.605,468.924,286.268,475.533,286.268,483.531C286.268,483.531,286.268,486.401,286.268,486.401C286.268,494.474,288.586,501.171,293.235,506.486C297.871,511.813,303.5,514.47,310.109,514.47C317.025,514.47,322.472,512.278,326.436,507.893C330.4,503.514,332.379,497.672,332.379,490.366C332.379,490.366,332.379,485.045,332.379,485.045C332.379,485.045,292.525,485.045,292.525,485.045C292.525,485.045,292.525,483.537,292.525,483.537C292.525,477.185,294.215,471.877,297.588,467.611C300.962,463.34,305.391,461.204,310.888,461.204C314.783,461.204,318.106,461.744,320.851,462.824C323.597,463.905,325.946,465.45,327.894,467.467C327.894,467.467,330.557,463.195,330.557,463.195C328.434,460.952,325.745,459.181,322.497,457.861C319.243,456.548,315.373,455.889,310.888,455.889C310.888,455.889,310.888,455.889,310.888,455.889C310.888,455.889,310.888,455.889,310.888,455.889M310.109,509.149C305.485,509.149,301.603,507.384,298.474,503.872C295.345,500.348,293.517,495.938,292.996,490.623C292.996,490.623,293.103,490.366,293.103,490.366C293.103,490.366,326.172,490.366,326.172,490.366C326.172,490.366,326.172,491.93,326.172,491.93C326.172,496.817,324.734,500.913,321.844,504.205C318.954,507.503,315.046,509.149,310.109,509.149C310.109,509.149,310.109,509.149,310.109,509.149C310.109,509.149,310.109,509.149,310.109,509.149M343.863,484.737C343.863,493.745,345.766,500.951,349.573,506.354C353.387,511.763,358.695,514.47,365.511,514.47C369.444,514.47,372.849,513.635,375.739,511.964C378.622,510.293,381.022,507.931,382.932,504.871C382.932,504.871,382.932,538.362,382.932,538.362C382.932,538.362,389.145,538.362,389.145,538.362C389.145,538.362,389.145,456.982,389.145,456.982C389.145,456.982,383.611,456.982,383.611,456.982C383.611,456.982,383.089,465.168,383.089,465.168C381.211,462.184,378.798,459.884,375.839,458.282C372.887,456.687,369.406,455.889,365.405,455.889C358.658,455.889,353.387,458.402,349.573,463.427C345.766,468.453,343.863,475.188,343.863,483.644C343.863,483.644,343.863,484.737,343.863,484.737C343.863,484.737,343.863,484.737,343.863,484.737C343.863,484.737,343.863,484.737,343.863,484.737M350.12,483.631C350.12,476.79,351.49,471.337,354.222,467.285C356.949,463.239,361.057,461.204,366.554,461.204C370.587,461.204,373.955,462.114,376.65,463.93C379.345,465.746,381.437,468.265,382.932,471.481C382.932,471.481,382.932,498.093,382.932,498.093C381.506,501.378,379.489,504.042,376.882,506.077C374.275,508.125,370.864,509.149,366.661,509.149C361.164,509.149,357.037,506.881,354.266,502.358C351.508,497.835,350.12,491.968,350.12,484.737C350.12,484.737,350.12,483.631,350.12,483.631C350.12,483.631,350.12,483.631,350.12,483.631C350.12,483.631,350.12,483.631,350.12,483.631M478.296,483.644C478.296,475.188,476.386,468.453,472.56,463.427C468.734,458.402,463.464,455.889,456.754,455.889C452.614,455.889,449.052,456.712,446.056,458.364C443.065,460.016,440.653,462.391,438.806,465.488C438.806,465.488,438.128,456.982,438.128,456.982C438.128,456.982,432.756,456.982,432.756,456.982C432.756,456.982,432.756,538.362,432.756,538.362C432.756,538.362,439.013,538.362,439.013,538.362C439.013,538.362,439.013,504.557,439.013,504.557C440.892,507.723,443.291,510.167,446.213,511.888C449.134,513.61,452.614,514.47,456.647,514.47C463.432,514.47,468.734,511.763,472.56,506.354C476.386,500.951,478.296,493.745,478.296,484.737C478.296,484.737,478.296,483.644,478.296,483.644C478.296,483.644,478.296,483.644,478.296,483.644C478.296,483.644,478.296,483.644,478.296,483.644M471.982,484.737C471.982,491.968,470.594,497.835,467.811,502.358C465.028,506.881,460.907,509.149,455.448,509.149C451.1,509.149,447.601,508.063,444.937,505.901C442.28,503.734,440.301,500.957,439.013,497.565C439.013,497.565,439.013,471.952,439.013,471.952C440.408,468.667,442.487,466.053,445.252,464.112C448.016,462.177,451.452,461.204,455.554,461.204C461.014,461.204,465.116,463.239,467.861,467.285C470.607,471.337,471.982,476.79,471.982,483.631C471.982,483.631,471.982,484.737,471.982,484.737C471.982,484.737,471.982,484.737,471.982,484.737C471.982,484.737,471.982,484.737,471.982,484.737M507.716,472.267C507.716,472.267,509.701,465.538,509.701,465.538C509.701,465.538,510.015,465.538,510.015,465.538C510.015,465.538,527.071,513.428,527.071,513.428C527.071,513.428,534.063,513.428,534.063,513.428C534.063,513.428,509.544,447.961,509.544,447.961C508.08,444.135,506.189,440.881,503.858,438.204C501.528,435.528,498.116,434.19,493.631,434.19C492.902,434.19,492.016,434.265,490.973,434.422C489.931,434.58,489.164,434.743,488.674,434.913C488.674,434.913,489.409,440.133,489.409,440.133C489.824,440.064,490.496,439.982,491.413,439.901C492.337,439.813,493.009,439.769,493.424,439.769C496.137,439.769,498.311,440.73,499.944,442.665C501.578,444.593,502.972,447.075,504.116,450.097C504.116,450.097,507.094,457.711,507.094,457.711C507.094,457.711,485.288,513.428,485.288,513.428C485.288,513.428,492.224,513.428,492.224,513.428C492.224,513.428,507.716,472.267,507.716,472.267M993.512,465.438C974.842,484.768,970.406,519.892,969.759,525.91C969.759,525.91,951.654,525.91,951.654,525.91C956.397,473.309,982.016,448.583,982.016,448.583C982.016,448.62,971.983,436.753,959.614,435.497C958.005,435.302,957.471,435.384,953.708,435.654C953.708,435.654,953.708,419.804,953.708,419.804C955.951,418.905,959.387,417.63,964.507,418.101C984.183,420.991,1022.945,446.522,1024,525.91C1024,525.91,1006.008,525.91,1006.008,525.91C1005.486,485.66,993.512,465.438,993.512,465.438M635.301,515.011C634.685,521.475,633.102,526.539,626.883,527.839C621.078,529.045,618.15,527.87,612.308,526.092C612.308,526.092,612.308,511.844,612.308,511.844C617.943,512.353,619.815,511.731,619.822,506.146C619.822,506.146,619.916,447.414,619.916,447.414C619.916,447.414,638.078,447.414,638.078,447.414C638.078,447.414,638.071,496.824,638.071,496.824C638.14,505.462,648.23,513.44,656.773,512.265C656.773,512.265,662.987,511.75,662.987,511.75C662.987,511.75,663.024,527.5,663.024,527.5C649.976,531.885,641.991,525.471,635.301,515.011M747.3,467.09C747.124,469.037,747.325,525.747,747.325,525.747C747.325,525.747,728.636,525.747,728.636,525.747C728.636,525.747,728.636,515.601,728.636,515.601C724.873,521.337,721.16,524.183,715.562,526.061C705.335,529.485,695.133,528.989,685.647,523.963C669.69,515.501,663.188,501.604,663.847,483.926C664.783,458.998,687.713,441.251,712.088,446.528C719.42,448.118,725.451,451.623,730.062,457.648C730.062,457.648,733.027,452.006,733.027,452.006C736.972,445.335,749.606,443.708,756.051,447.376C756.051,447.376,756.051,461.888,756.051,461.888C756.051,461.888,753.859,461.888,753.859,461.888C749.442,461.957,747.696,462.724,747.3,467.09C747.3,467.09,747.3,467.09,747.3,467.09C747.3,467.09,747.3,467.09,747.3,467.09M705.36,462.636C692.029,462.743,681.959,473.309,682.003,487.149C682.053,501.014,692.519,511.549,706.07,511.361C719.64,511.172,730.049,500.48,729.968,486.81C729.886,473.008,719.219,462.529,705.36,462.636C705.36,462.636,705.36,462.636,705.36,462.636C705.36,462.636,705.36,462.636,705.36,462.636M953.878,462.517C941.515,461.373,938.92,463.541,938.882,475.464C938.882,475.948,939.033,558.006,939.033,558.006C939.033,558.006,920.551,558.006,920.551,558.006C920.551,558.006,920.551,465.865,920.551,465.865C921.625,448.206,935.603,442.068,953.878,447.741C953.878,447.741,953.878,462.517,953.878,462.517M903.067,466.713C899.876,470.765,885.634,491.182,885.634,491.182C896.314,501.397,903.444,512.309,908.037,525.747C908.037,525.747,890.528,525.747,890.528,525.747C887.783,520.91,878.617,504.004,865.179,496.434C865.179,496.434,865.179,558.006,865.179,558.006C865.179,558.006,846.905,558.006,846.905,558.006C846.905,558.006,846.905,447.263,846.905,447.263C846.905,447.263,864.972,447.263,864.972,447.263C864.966,452.101,864.947,467.988,865.016,474.679C865.016,474.679,872.586,480.295,872.586,480.295C883.781,461.549,889.548,439.134,915.286,447.904C915.286,447.904,915.217,462.956,915.217,462.956C910.813,461.976,904.594,464.772,903.067,466.713M833.373,470.551C833.31,471.871,833.536,492.225,833.197,500.662C832.682,513.472,825.269,523.598,814.067,526.545C801.038,529.975,789.919,527.977,780.244,515.695C780.244,515.695,780.244,525.747,780.244,525.747C780.244,525.747,761.969,525.747,761.969,525.747C761.969,525.747,761.969,447.263,761.969,447.263C761.969,447.263,780.338,447.263,780.338,447.263C780.37,464.464,780.432,494.028,780.432,494.028C780.627,505.575,790.635,513.377,801.974,511.241C810.166,509.69,814.991,503.477,815.148,493.858C815.292,484.435,814.934,474.993,815.091,465.57C815.336,450.549,826.475,442.816,840.987,447.954C840.987,447.954,840.987,462.812,840.987,462.812C835.075,463.157,833.637,464.294,833.373,470.551M594.649,564.351C581.682,563.34,574.445,552.371,573.371,539.43C573.371,539.43,573.27,525.791,573.27,525.791C573.27,525.791,560.291,525.791,560.291,525.791C560.291,525.791,560.291,511.279,560.291,511.279C560.291,511.279,573.27,511.279,573.27,511.279C573.27,511.279,573.277,418.208,573.277,418.208C573.277,418.208,591.112,418.208,591.112,418.208C591.112,418.208,591.112,511.279,591.112,511.279C591.112,511.279,606.151,511.279,606.151,511.279C606.151,511.279,606.151,525.791,606.151,525.791C606.151,525.791,591.206,525.791,591.206,525.791C591.206,526.589,591.181,527.902,591.181,527.902C591.181,547.251,593.801,548.608,611.542,548.608C611.542,548.608,611.542,564.389,611.542,564.389C608.313,564.42,597.884,564.602,594.649,564.351M1018.44,606.467C1018.44,606.467,957.176,606.467,957.176,606.467C954.469,606.467,952.276,604.275,952.276,601.567C952.276,601.567,952.276,562.184,952.276,562.184C952.276,559.476,954.469,557.284,957.176,557.284C957.176,557.284,995.994,557.284,995.994,557.284C995.994,557.284,995.994,542.332,995.994,542.332C995.994,542.332,1005.643,557.284,1005.643,557.284C1005.643,557.284,1018.44,557.284,1018.44,557.284C1021.148,557.284,1023.34,559.476,1023.34,562.184C1023.34,562.184,1023.34,601.567,1023.34,601.567C1023.34,604.275,1021.148,606.467,1018.44,606.467" class="sdk-icon_frankly_fill"/><glyph unicode="&#x0052;" d="M6.207,488.537C6.207,488.537,6.207,456.982,6.207,456.982C6.207,456.982,0,456.982,0,456.982C0,456.982,0,532.934,0,532.934C0,532.934,26.134,532.934,26.134,532.934C34.1,532.934,40.263,530.911,44.629,526.859C48.995,522.807,51.175,517.442,51.175,510.77C51.175,504.017,48.995,498.627,44.629,494.593C40.263,490.56,34.1,488.537,26.134,488.537C26.134,488.537,6.207,488.537,6.207,488.537C6.207,488.537,6.207,488.537,6.207,488.537C6.207,488.537,6.207,488.537,6.207,488.537M6.207,493.865C6.207,493.865,26.134,493.865,26.134,493.865C32.397,493.865,37.096,495.454,40.244,498.633C43.391,501.818,44.968,505.826,44.968,510.657C44.968,515.532,43.404,519.572,40.269,522.788C37.14,526.005,32.429,527.613,26.134,527.613C26.134,527.613,6.207,527.613,6.207,527.613C6.207,527.613,6.207,493.865,6.207,493.865C6.207,493.865,6.207,493.865,6.207,493.865C6.207,493.865,6.207,493.865,6.207,493.865M57.84,486.037C57.84,494.355,60.121,501.171,64.675,506.486C69.236,511.813,75.267,514.47,82.781,514.47C90.326,514.47,96.375,511.813,100.93,506.486C105.491,501.171,107.765,494.355,107.765,486.037C107.765,486.037,107.765,484.316,107.765,484.316C107.765,475.973,105.497,469.144,100.961,463.842C96.419,458.54,90.395,455.889,82.881,455.889C75.299,455.889,69.236,458.54,64.675,463.842C60.121,469.144,57.84,475.973,57.84,484.316C57.84,484.316,57.84,486.037,57.84,486.037C57.84,486.037,57.84,486.037,57.84,486.037C57.84,486.037,57.84,486.037,57.84,486.037M64.104,484.341C64.104,477.814,65.756,472.323,69.06,467.875C72.365,463.434,76.97,461.204,82.881,461.204C88.692,461.204,93.253,463.434,96.576,467.875C99.9,472.323,101.558,477.814,101.558,484.341C101.558,484.341,101.558,486.069,101.558,486.069C101.558,492.489,99.887,497.942,96.551,502.427C93.209,506.907,88.623,509.149,82.781,509.149C76.938,509.149,72.365,506.907,69.06,502.427C65.756,497.942,64.104,492.489,64.104,486.069C64.104,486.069,64.104,484.341,64.104,484.341C64.104,484.341,64.104,484.341,64.104,484.341C64.104,484.341,64.104,484.341,64.104,484.341M128.678,475.295C128.678,475.295,130.814,465.224,130.814,465.224C130.814,465.224,131.129,465.224,131.129,465.224C131.129,465.224,133.792,475.295,133.792,475.295C133.792,475.295,145.785,513.428,145.785,513.428C145.785,513.428,151.163,513.428,151.163,513.428C151.163,513.428,163.155,475.295,163.155,475.295C163.155,475.295,165.869,464.96,165.869,464.96C165.869,464.96,166.183,464.96,166.183,464.96C166.183,464.96,168.533,475.295,168.533,475.295C168.533,475.295,178.811,513.428,178.811,513.428C178.811,513.428,185.275,513.428,185.275,513.428C185.275,513.428,168.847,456.982,168.847,456.982C168.847,456.982,163.526,456.982,163.526,456.982C163.526,456.982,151.005,495.586,151.005,495.586C151.005,495.586,148.549,505.342,148.549,505.342C148.549,505.342,148.241,505.342,148.241,505.342C148.241,505.342,145.735,495.586,145.735,495.586C145.735,495.586,133.422,456.982,133.422,456.982C133.422,456.982,128.05,456.982,128.05,456.982C128.05,456.982,111.673,513.428,111.673,513.428C111.673,513.428,118.137,513.428,118.137,513.428C118.137,513.428,128.678,475.295,128.678,475.295M218.916,455.889C211.855,455.889,205.987,458.49,201.307,463.71C196.633,468.924,194.296,475.533,194.296,483.531C194.296,483.531,194.296,486.401,194.296,486.401C194.296,494.474,196.614,501.171,201.257,506.486C205.899,511.813,211.528,514.47,218.131,514.47C225.054,514.47,230.494,512.278,234.458,507.893C238.429,503.514,240.408,497.672,240.408,490.366C240.408,490.366,240.408,485.045,240.408,485.045C240.408,485.045,200.553,485.045,200.553,485.045C200.553,485.045,200.553,483.537,200.553,483.537C200.553,477.185,202.243,471.877,205.617,467.611C208.984,463.34,213.419,461.204,218.916,461.204C222.811,461.204,226.134,461.744,228.88,462.824C231.625,463.905,233.975,465.45,235.922,467.467C235.922,467.467,238.579,463.195,238.579,463.195C236.462,460.952,233.774,459.181,230.519,457.861C227.271,456.548,223.402,455.889,218.916,455.889C218.916,455.889,218.916,455.889,218.916,455.889C218.916,455.889,218.916,455.889,218.916,455.889M218.131,509.149C213.507,509.149,209.631,507.384,206.502,503.872C203.368,500.348,201.546,495.938,201.024,490.623C201.024,490.623,201.125,490.366,201.125,490.366C201.125,490.366,234.201,490.366,234.201,490.366C234.201,490.366,234.201,491.93,234.201,491.93C234.201,496.817,232.756,500.913,229.872,504.205C226.982,507.503,223.069,509.149,218.131,509.149C218.131,509.149,218.131,509.149,218.131,509.149C218.131,509.149,218.131,509.149,218.131,509.149M278.748,508.056C278.748,508.056,274.105,508.364,274.105,508.364C270.179,508.364,266.95,507.265,264.431,505.053C261.912,502.842,260.109,499.808,259.028,495.95C259.028,495.95,259.028,456.982,259.028,456.982C259.028,456.982,252.771,456.982,252.771,456.982C252.771,456.982,252.771,513.428,252.771,513.428C252.771,513.428,258.249,513.428,258.249,513.428C258.249,513.428,259.028,504.036,259.028,504.036C259.028,504.036,259.028,503.407,259.028,503.407C260.668,506.888,262.86,509.602,265.605,511.549C268.351,513.49,271.624,514.47,275.412,514.47C276.21,514.47,276.983,514.408,277.73,514.288C278.478,514.163,279.093,514.031,279.583,513.892C279.583,513.892,278.748,508.056,278.748,508.056M310.888,455.889C303.826,455.889,297.959,458.49,293.279,463.71C288.605,468.924,286.268,475.533,286.268,483.531C286.268,483.531,286.268,486.401,286.268,486.401C286.268,494.474,288.586,501.171,293.235,506.486C297.871,511.813,303.5,514.47,310.109,514.47C317.025,514.47,322.472,512.278,326.436,507.893C330.4,503.514,332.379,497.672,332.379,490.366C332.379,490.366,332.379,485.045,332.379,485.045C332.379,485.045,292.525,485.045,292.525,485.045C292.525,485.045,292.525,483.537,292.525,483.537C292.525,477.185,294.215,471.877,297.588,467.611C300.962,463.34,305.391,461.204,310.888,461.204C314.783,461.204,318.106,461.744,320.851,462.824C323.597,463.905,325.946,465.45,327.894,467.467C327.894,467.467,330.557,463.195,330.557,463.195C328.434,460.952,325.745,459.181,322.497,457.861C319.243,456.548,315.373,455.889,310.888,455.889C310.888,455.889,310.888,455.889,310.888,455.889C310.888,455.889,310.888,455.889,310.888,455.889M310.109,509.149C305.485,509.149,301.603,507.384,298.474,503.872C295.345,500.348,293.517,495.938,292.996,490.623C292.996,490.623,293.103,490.366,293.103,490.366C293.103,490.366,326.172,490.366,326.172,490.366C326.172,490.366,326.172,491.93,326.172,491.93C326.172,496.817,324.734,500.913,321.844,504.205C318.954,507.503,315.046,509.149,310.109,509.149C310.109,509.149,310.109,509.149,310.109,509.149C310.109,509.149,310.109,509.149,310.109,509.149M343.863,484.737C343.863,493.745,345.766,500.951,349.573,506.354C353.387,511.763,358.695,514.47,365.511,514.47C369.444,514.47,372.849,513.635,375.739,511.964C378.622,510.293,381.022,507.931,382.932,504.871C382.932,504.871,382.932,538.362,382.932,538.362C382.932,538.362,389.145,538.362,389.145,538.362C389.145,538.362,389.145,456.982,389.145,456.982C389.145,456.982,383.611,456.982,383.611,456.982C383.611,456.982,383.089,465.168,383.089,465.168C381.211,462.184,378.798,459.884,375.839,458.282C372.887,456.687,369.406,455.889,365.405,455.889C358.658,455.889,353.387,458.402,349.573,463.427C345.766,468.453,343.863,475.188,343.863,483.644C343.863,483.644,343.863,484.737,343.863,484.737C343.863,484.737,343.863,484.737,343.863,484.737C343.863,484.737,343.863,484.737,343.863,484.737M350.12,483.631C350.12,476.79,351.49,471.337,354.222,467.285C356.949,463.239,361.057,461.204,366.554,461.204C370.587,461.204,373.955,462.114,376.65,463.93C379.345,465.746,381.437,468.265,382.932,471.481C382.932,471.481,382.932,498.093,382.932,498.093C381.506,501.378,379.489,504.042,376.882,506.077C374.275,508.125,370.864,509.149,366.661,509.149C361.164,509.149,357.037,506.881,354.266,502.358C351.508,497.835,350.12,491.968,350.12,484.737C350.12,484.737,350.12,483.631,350.12,483.631C350.12,483.631,350.12,483.631,350.12,483.631C350.12,483.631,350.12,483.631,350.12,483.631M478.296,483.644C478.296,475.188,476.386,468.453,472.56,463.427C468.734,458.402,463.464,455.889,456.754,455.889C452.614,455.889,449.052,456.712,446.056,458.364C443.065,460.016,440.653,462.391,438.806,465.488C438.806,465.488,438.128,456.982,438.128,456.982C438.128,456.982,432.756,456.982,432.756,456.982C432.756,456.982,432.756,538.362,432.756,538.362C432.756,538.362,439.013,538.362,439.013,538.362C439.013,538.362,439.013,504.557,439.013,504.557C440.892,507.723,443.291,510.167,446.213,511.888C449.134,513.61,452.614,514.47,456.647,514.47C463.432,514.47,468.734,511.763,472.56,506.354C476.386,500.951,478.296,493.745,478.296,484.737C478.296,484.737,478.296,483.644,478.296,483.644C478.296,483.644,478.296,483.644,478.296,483.644C478.296,483.644,478.296,483.644,478.296,483.644M471.982,484.737C471.982,491.968,470.594,497.835,467.811,502.358C465.028,506.881,460.907,509.149,455.448,509.149C451.1,509.149,447.601,508.063,444.937,505.901C442.28,503.734,440.301,500.957,439.013,497.565C439.013,497.565,439.013,471.952,439.013,471.952C440.408,468.667,442.487,466.053,445.252,464.112C448.016,462.177,451.452,461.204,455.554,461.204C461.014,461.204,465.116,463.239,467.861,467.285C470.607,471.337,471.982,476.79,471.982,483.631C471.982,483.631,471.982,484.737,471.982,484.737C471.982,484.737,471.982,484.737,471.982,484.737C471.982,484.737,471.982,484.737,471.982,484.737M507.716,472.267C507.716,472.267,509.701,465.538,509.701,465.538C509.701,465.538,510.015,465.538,510.015,465.538C510.015,465.538,527.071,513.428,527.071,513.428C527.071,513.428,534.063,513.428,534.063,513.428C534.063,513.428,509.544,447.961,509.544,447.961C508.08,444.135,506.189,440.881,503.858,438.204C501.528,435.528,498.116,434.19,493.631,434.19C492.902,434.19,492.016,434.265,490.973,434.422C489.931,434.58,489.164,434.743,488.674,434.913C488.674,434.913,489.409,440.133,489.409,440.133C489.824,440.064,490.496,439.982,491.413,439.901C492.337,439.813,493.009,439.769,493.424,439.769C496.137,439.769,498.311,440.73,499.944,442.665C501.578,444.593,502.972,447.075,504.116,450.097C504.116,450.097,507.094,457.711,507.094,457.711C507.094,457.711,485.288,513.428,485.288,513.428C485.288,513.428,492.224,513.428,492.224,513.428C492.224,513.428,507.716,472.267,507.716,472.267M993.512,465.438C974.842,484.768,970.406,519.892,969.759,525.91C969.759,525.91,951.654,525.91,951.654,525.91C956.397,473.309,982.016,448.583,982.016,448.583C982.016,448.62,971.983,436.753,959.614,435.497C958.005,435.302,957.471,435.384,953.708,435.654C953.708,435.654,953.708,419.804,953.708,419.804C955.951,418.905,959.387,417.63,964.507,418.101C984.183,420.991,1022.945,446.522,1024,525.91C1024,525.91,1006.008,525.91,1006.008,525.91C1005.486,485.66,993.512,465.438,993.512,465.438M635.301,515.011C634.685,521.475,633.102,526.539,626.883,527.839C621.078,529.045,618.15,527.87,612.308,526.092C612.308,526.092,612.308,511.844,612.308,511.844C617.943,512.353,619.815,511.731,619.822,506.146C619.822,506.146,619.916,447.414,619.916,447.414C619.916,447.414,638.078,447.414,638.078,447.414C638.078,447.414,638.071,496.824,638.071,496.824C638.14,505.462,648.23,513.44,656.773,512.265C656.773,512.265,662.987,511.75,662.987,511.75C662.987,511.75,663.024,527.5,663.024,527.5C649.976,531.885,641.991,525.471,635.301,515.011M747.3,467.09C747.124,469.037,747.325,525.747,747.325,525.747C747.325,525.747,728.636,525.747,728.636,525.747C728.636,525.747,728.636,515.601,728.636,515.601C724.873,521.337,721.16,524.183,715.562,526.061C705.335,529.485,695.133,528.989,685.647,523.963C669.69,515.501,663.188,501.604,663.847,483.926C664.783,458.998,687.713,441.251,712.088,446.528C719.42,448.118,725.451,451.623,730.062,457.648C730.062,457.648,733.027,452.006,733.027,452.006C736.972,445.335,749.606,443.708,756.051,447.376C756.051,447.376,756.051,461.888,756.051,461.888C756.051,461.888,753.859,461.888,753.859,461.888C749.442,461.957,747.696,462.724,747.3,467.09C747.3,467.09,747.3,467.09,747.3,467.09C747.3,467.09,747.3,467.09,747.3,467.09M705.36,462.636C692.029,462.743,681.959,473.309,682.003,487.149C682.053,501.014,692.519,511.549,706.07,511.361C719.64,511.172,730.049,500.48,729.968,486.81C729.886,473.008,719.219,462.529,705.36,462.636C705.36,462.636,705.36,462.636,705.36,462.636C705.36,462.636,705.36,462.636,705.36,462.636M953.878,462.517C941.515,461.373,938.92,463.541,938.882,475.464C938.882,475.948,939.033,558.006,939.033,558.006C939.033,558.006,920.551,558.006,920.551,558.006C920.551,558.006,920.551,465.865,920.551,465.865C921.625,448.206,935.603,442.068,953.878,447.741C953.878,447.741,953.878,462.517,953.878,462.517M903.067,466.713C899.876,470.765,885.634,491.182,885.634,491.182C896.314,501.397,903.444,512.309,908.037,525.747C908.037,525.747,890.528,525.747,890.528,525.747C887.783,520.91,878.617,504.004,865.179,496.434C865.179,496.434,865.179,558.006,865.179,558.006C865.179,558.006,846.905,558.006,846.905,558.006C846.905,558.006,846.905,447.263,846.905,447.263C846.905,447.263,864.972,447.263,864.972,447.263C864.966,452.101,864.947,467.988,865.016,474.679C865.016,474.679,872.586,480.295,872.586,480.295C883.781,461.549,889.548,439.134,915.286,447.904C915.286,447.904,915.217,462.956,915.217,462.956C910.813,461.976,904.594,464.772,903.067,466.713M833.373,470.551C833.31,471.871,833.536,492.225,833.197,500.662C832.682,513.472,825.269,523.598,814.067,526.545C801.038,529.975,789.919,527.977,780.244,515.695C780.244,515.695,780.244,525.747,780.244,525.747C780.244,525.747,761.969,525.747,761.969,525.747C761.969,525.747,761.969,447.263,761.969,447.263C761.969,447.263,780.338,447.263,780.338,447.263C780.37,464.464,780.432,494.028,780.432,494.028C780.627,505.575,790.635,513.377,801.974,511.241C810.166,509.69,814.991,503.477,815.148,493.858C815.292,484.435,814.934,474.993,815.091,465.57C815.336,450.549,826.475,442.816,840.987,447.954C840.987,447.954,840.987,462.812,840.987,462.812C835.075,463.157,833.637,464.294,833.373,470.551M594.649,564.351C581.682,563.34,574.445,552.371,573.371,539.43C573.371,539.43,573.27,525.791,573.27,525.791C573.27,525.791,560.291,525.791,560.291,525.791C560.291,525.791,560.291,511.279,560.291,511.279C560.291,511.279,573.27,511.279,573.27,511.279C573.27,511.279,573.277,418.208,573.277,418.208C573.277,418.208,591.112,418.208,591.112,418.208C591.112,418.208,591.112,511.279,591.112,511.279C591.112,511.279,606.151,511.279,606.151,511.279C606.151,511.279,606.151,525.791,606.151,525.791C606.151,525.791,591.206,525.791,591.206,525.791C591.206,526.589,591.181,527.902,591.181,527.902C591.181,547.251,593.801,548.608,611.542,548.608C611.542,548.608,611.542,564.389,611.542,564.389C608.313,564.42,597.884,564.602,594.649,564.351M1018.44,606.467C1018.44,606.467,957.176,606.467,957.176,606.467C954.469,606.467,952.276,604.275,952.276,601.567C952.276,601.567,952.276,562.184,952.276,562.184C952.276,559.476,954.469,557.284,957.176,557.284C957.176,557.284,995.994,557.284,995.994,557.284C995.994,557.284,995.994,542.332,995.994,542.332C995.994,542.332,1005.643,557.284,1005.643,557.284C1005.643,557.284,1018.44,557.284,1018.44,557.284C1021.148,557.284,1023.34,559.476,1023.34,562.184C1023.34,562.184,1023.34,601.567,1023.34,601.567C1023.34,604.275,1021.148,606.467,1018.44,606.467" class="sdk-icon_frankly_stroke"/><glyph unicode="&#x0053;" d="M795.124,906.581C795.124,906.581,112.433,906.581,112.433,906.581C50.725,906.581,0.5,856.381,0.5,794.648C0.5,794.648,0.5,111.933,0.5,111.933C0.5,50.225,50.725,0,112.433,0C112.433,0,795.124,0,795.124,0C856.881,0,907.106,50.225,907.106,111.933C907.106,111.933,907.106,794.648,907.106,794.648C907.106,856.381,856.881,906.581,795.124,906.581C795.124,906.581,795.124,906.581,795.124,906.581C795.124,906.581,795.124,906.581,795.124,906.581M112.433,845.093C112.433,845.093,795.124,845.093,795.124,845.093C822.967,845.093,845.593,822.467,845.593,794.648C845.593,794.648,845.593,478.818,845.593,478.818C845.593,478.818,693.553,612.815,693.553,612.815C680.924,623.957,661.663,622.885,650.374,610.353C650.374,610.353,423.875,359.546,423.875,359.546C423.875,359.546,312.137,474.185,312.137,474.185C306.383,480.085,298.533,483.426,290.316,483.474C281.637,483.791,274.176,480.305,268.374,474.478C268.374,474.478,61.989,268.41,61.989,268.41C61.989,268.41,61.989,794.648,61.989,794.648C61.989,822.467,84.639,845.093,112.433,845.093C112.433,845.093,112.433,845.093,112.433,845.093C112.433,845.093,112.433,845.093,112.433,845.093M813.263,1024C813.263,1024,229.852,1024,229.852,1024C187.794,1024,151.54,1000.424,132.401,966.046C132.401,966.046,801.195,966.046,801.195,966.046C894.062,966.046,969.326,890.758,969.326,797.915C969.326,797.915,969.326,133.413,969.326,133.413C1002.191,152.942,1024.5,188.44,1024.5,229.352C1024.5,229.352,1024.5,812.739,1024.5,812.739C1024.5,929.426,929.926,1024,813.263,1024M244.87,583.217C291.462,583.217,329.326,621.105,329.326,667.697C329.326,714.264,291.462,752.152,244.87,752.152C198.303,752.152,160.39,714.264,160.39,667.697C160.39,621.105,198.303,583.217,244.87,583.217" class="sdk-icon_gallery_fill"/><glyph unicode="&#x0054;" d="M792.296,905.801C792.296,905.801,112.043,905.801,112.043,905.801C50.53,905.801,0.5,855.601,0.5,793.917C0.5,793.917,0.5,111.835,0.5,111.835C0.5,50.176,50.53,0,112.043,0C112.043,0,792.296,0,792.296,0C853.809,0,903.839,50.176,903.839,111.835C903.839,111.835,903.839,793.917,903.839,793.917C903.839,855.601,853.809,905.801,792.296,905.801C792.296,905.801,792.296,905.801,792.296,905.801C792.296,905.801,792.296,905.801,792.296,905.801M112.043,844.337C112.043,844.337,792.296,844.337,792.296,844.337C820.017,844.337,842.569,821.736,842.569,793.917C842.569,793.917,842.569,478.379,842.569,478.379C842.569,478.379,691.066,612.254,691.066,612.254C678.486,623.372,659.273,622.324,648.034,609.816C648.034,609.816,422.364,359.229,422.364,359.229C422.364,359.229,311.016,473.746,311.016,473.746C305.286,479.646,297.46,482.987,289.268,483.06C280.637,482.548,273.201,479.866,267.398,474.063C267.398,474.063,61.769,268.166,61.769,268.166C61.769,268.166,61.769,793.917,61.769,793.917C61.769,821.736,84.322,844.337,112.043,844.337C112.043,844.337,112.043,844.337,112.043,844.337C112.043,844.337,112.043,844.337,112.043,844.337M792.296,61.44C792.296,61.44,112.043,61.44,112.043,61.44C84.322,61.44,61.769,84.066,61.769,111.835C61.769,111.835,61.769,181.297,61.769,181.297C61.769,181.297,288.756,408.576,288.756,408.576C288.756,408.576,401.25,292.864,401.25,292.864C407.174,286.769,415.342,283.867,423.778,283.575C432.262,283.746,440.259,287.403,445.964,293.717C445.964,293.717,673.244,546.085,673.244,546.085C673.244,546.085,842.569,396.434,842.569,396.434C842.569,396.434,842.569,111.835,842.569,111.835C842.569,84.066,820.017,61.44,792.296,61.44C792.296,61.44,792.296,61.44,792.296,61.44C792.296,61.44,792.296,61.44,792.296,61.44M814.848,1024C814.848,1024,218.685,1024,218.685,1024C201.765,1024,188.063,1010.225,188.063,993.256C188.063,976.286,201.765,962.511,218.685,962.511C218.685,962.511,814.848,962.511,814.848,962.511C896.671,962.511,963.206,895.781,963.206,813.739C963.206,813.739,963.206,193.39,963.206,193.39C963.206,176.421,976.933,162.67,993.853,162.67C1010.774,162.67,1024.5,176.421,1024.5,193.39C1024.5,193.39,1024.5,813.739,1024.5,813.739C1024.5,929.67,930.463,1024,814.848,1024M243.993,561.591C302.019,561.591,349.196,608.914,349.196,667.087C349.196,725.26,302.019,772.608,243.993,772.608C185.99,772.608,138.789,725.26,138.789,667.087C138.789,608.914,185.99,561.591,243.993,561.591C243.993,561.591,243.993,561.591,243.993,561.591C243.993,561.591,243.993,561.591,243.993,561.591M243.993,711.119C268.227,711.119,287.927,691.371,287.927,667.087C287.927,642.804,268.227,623.055,243.993,623.055C219.782,623.055,200.058,642.804,200.058,667.087C200.058,691.371,219.782,711.119,243.993,711.119C243.993,711.119,243.993,711.119,243.993,711.119C243.993,711.119,243.993,711.119,243.993,711.119" class="sdk-icon_gallery_stroke"/><glyph unicode="&#x0055;" d="M970.618,902.958C970.618,902.958,54.406,902.958,54.406,902.958C24.637,902.958,0.5,878.797,0.5,849.003C0.5,849.003,0.5,175.455,0.5,175.455C0.5,145.662,24.637,121.5,54.406,121.5C54.406,121.5,970.618,121.5,970.618,121.5C1000.387,121.5,1024.5,145.662,1024.5,175.455C1024.5,175.455,1024.5,849.003,1024.5,849.003C1024.5,878.797,1000.387,902.958,970.618,902.958C970.618,902.958,970.618,902.958,970.618,902.958C970.618,902.958,970.618,902.958,970.618,902.958M594.176,739.874C622.434,739.874,645.376,716.907,645.376,688.601C645.376,660.27,622.434,637.328,594.176,637.328C565.894,637.328,542.976,660.27,542.976,688.601C542.976,716.907,565.894,739.874,594.176,739.874C594.176,739.874,594.176,739.874,594.176,739.874C594.176,739.874,594.176,739.874,594.176,739.874M594.176,551.848C622.434,551.848,645.376,528.906,645.376,500.575C645.376,472.269,622.434,449.302,594.176,449.302C565.894,449.302,542.976,472.269,542.976,500.575C542.976,528.906,565.894,551.848,594.176,551.848C594.176,551.848,594.176,551.848,594.176,551.848C594.176,551.848,594.176,551.848,594.176,551.848M423.51,739.874C451.767,739.874,474.71,716.907,474.71,688.601C474.71,660.27,451.767,637.328,423.51,637.328C395.228,637.328,372.31,660.27,372.31,688.601C372.31,716.907,395.228,739.874,423.51,739.874C423.51,739.874,423.51,739.874,423.51,739.874C423.51,739.874,423.51,739.874,423.51,739.874M474.71,500.575C474.71,472.269,451.767,449.302,423.51,449.302C395.228,449.302,372.31,472.269,372.31,500.575C372.31,528.906,395.228,551.848,423.51,551.848C451.767,551.848,474.71,528.906,474.71,500.575C474.71,500.575,474.71,500.575,474.71,500.575C474.71,500.575,474.71,500.575,474.71,500.575M256.793,449.302C228.511,449.302,205.593,472.269,205.593,500.575C205.593,528.906,228.511,551.848,256.793,551.848C285.074,551.848,307.993,528.906,307.993,500.575C307.993,472.269,285.074,449.302,256.793,449.302C256.793,449.302,256.793,449.302,256.793,449.302C256.793,449.302,256.793,449.302,256.793,449.302M256.793,637.328C228.511,637.328,205.593,660.27,205.593,688.601C205.593,716.907,228.511,739.874,256.793,739.874C285.074,739.874,307.993,716.907,307.993,688.601C307.993,660.27,285.074,637.328,256.793,637.328C256.793,637.328,256.793,637.328,256.793,637.328C256.793,637.328,256.793,637.328,256.793,637.328M682.094,295.044C682.094,295.044,342.955,295.044,342.955,295.044C326.595,295.044,313.332,308.307,313.332,324.715C313.332,341.099,326.595,354.387,342.955,354.387C342.955,354.387,682.094,354.387,682.094,354.387C698.454,354.387,711.717,341.099,711.717,324.715C711.717,308.307,698.454,295.044,682.094,295.044C682.094,295.044,682.094,295.044,682.094,295.044C682.094,295.044,682.094,295.044,682.094,295.044M768.232,449.302C739.95,449.302,717.032,472.269,717.032,500.575C717.032,528.906,739.95,551.848,768.232,551.848C796.514,551.848,819.432,528.906,819.432,500.575C819.432,472.269,796.514,449.302,768.232,449.302C768.232,449.302,768.232,449.302,768.232,449.302C768.232,449.302,768.232,449.302,768.232,449.302M768.232,637.328C739.95,637.328,717.032,660.27,717.032,688.601C717.032,716.907,739.95,739.874,768.232,739.874C796.514,739.874,819.432,716.907,819.432,688.601C819.432,660.27,796.514,637.328,768.232,637.328C768.232,637.328,768.232,637.328,768.232,637.328C768.232,637.328,768.232,637.328,768.232,637.328" class="sdk-icon_keyboard_fill"/><glyph unicode="&#x0056;" d="M53.638,848.65C53.638,848.65,970.362,848.65,970.362,848.65C970.362,848.65,970.362,175.565,970.362,175.565C970.362,175.565,53.638,175.565,53.638,175.565C53.638,175.565,53.638,848.65,53.638,848.65C53.638,848.65,53.638,848.65,53.638,848.65M975.238,902.19C975.238,902.19,48.762,902.19,48.762,902.19C21.845,902.19,0,880.394,0,853.526C0,853.526,0,170.689,0,170.689C0,143.821,21.845,122,48.762,122C48.762,122,975.238,122,975.238,122C1002.179,122,1024,143.821,1024,170.689C1024,170.689,1024,853.526,1024,853.526C1024,880.394,1002.179,902.19,975.238,902.19C975.238,902.19,975.238,902.19,975.238,902.19C975.238,902.19,975.238,902.19,975.238,902.19M423.01,739.082C394.728,739.082,371.81,716.115,371.81,687.809C371.81,659.502,394.728,636.536,423.01,636.536C451.267,636.536,474.21,659.502,474.21,687.809C474.21,716.115,451.267,739.082,423.01,739.082M256.293,739.082C228.011,739.082,205.093,716.115,205.093,687.809C205.093,659.502,228.011,636.536,256.293,636.536C284.574,636.536,307.493,659.502,307.493,687.809C307.493,716.115,284.574,739.082,256.293,739.082M593.676,739.082C565.394,739.082,542.476,716.115,542.476,687.809C542.476,659.502,565.394,636.536,593.676,636.536C621.934,636.536,644.876,659.502,644.876,687.809C644.876,716.115,621.934,739.082,593.676,739.082M767.732,739.082C739.45,739.082,716.532,716.115,716.532,687.809C716.532,659.502,739.45,636.536,767.732,636.536C796.014,636.536,818.932,659.502,818.932,687.809C818.932,716.115,796.014,739.082,767.732,739.082M423.01,551.08C394.728,551.08,371.81,528.114,371.81,499.807C371.81,471.477,394.728,448.534,423.01,448.534C451.267,448.534,474.21,471.477,474.21,499.807C474.21,528.114,451.267,551.08,423.01,551.08M256.293,551.08C228.011,551.08,205.093,528.114,205.093,499.807C205.093,471.477,228.011,448.534,256.293,448.534C284.574,448.534,307.493,471.477,307.493,499.807C307.493,528.114,284.574,551.08,256.293,551.08M593.676,551.08C565.394,551.08,542.476,528.114,542.476,499.807C542.476,471.477,565.394,448.534,593.676,448.534C621.934,448.534,644.876,471.477,644.876,499.807C644.876,528.114,621.934,551.08,593.676,551.08M767.732,551.08C739.45,551.08,716.532,528.114,716.532,499.807C716.532,471.477,739.45,448.534,767.732,448.534C796.014,448.534,818.932,471.477,818.932,499.807C818.932,528.114,796.014,551.08,767.732,551.08M681.594,294.3C681.594,294.3,342.455,294.3,342.455,294.3C326.095,294.3,312.832,307.563,312.832,323.923C312.832,340.283,326.095,353.57,342.455,353.57C342.455,353.57,681.594,353.57,681.594,353.57C697.954,353.57,711.217,340.283,711.217,323.923C711.217,307.563,697.954,294.3,681.594,294.3" class="sdk-icon_keyboard_stroke"/><glyph unicode="&#x0057;" d="M806.065,620.618C806.065,620.618,781.844,620.618,781.844,620.618C781.844,620.618,781.844,764.505,781.844,764.505C781.844,907.61,660.369,1024,511.032,1024C361.67,1024,240.196,907.61,240.196,764.505C240.196,764.505,240.196,620.618,240.196,620.618C240.196,620.618,218.15,620.618,218.15,620.618C172.298,620.618,135,584.884,135,540.963C135,540.963,135,79.655,135,79.655C135,35.733,172.298,0,218.15,0C218.15,0,806.065,0,806.065,0C851.893,0,889.191,35.733,889.191,79.655C889.191,79.655,889.191,540.963,889.191,540.963C889.191,584.884,851.893,620.618,806.065,620.618C806.065,620.618,806.065,620.618,806.065,620.618C806.065,620.618,806.065,620.618,806.065,620.618M539.726,332.184C539.726,332.184,539.726,229.628,539.726,229.628C539.726,214.694,527.115,202.62,511.545,202.62C495.976,202.62,483.389,214.694,483.389,229.628C483.389,229.628,483.389,332.16,483.389,332.16C468.186,341.227,458.019,357.237,458.019,375.641C458.019,403.944,481.996,426.919,511.545,426.919C541.095,426.919,565.048,403.944,565.048,375.641C565.048,357.261,554.88,341.252,539.726,332.184C539.726,332.184,539.726,332.184,539.726,332.184C539.726,332.184,539.726,332.184,539.726,332.184M725.506,620.618C725.506,620.618,296.534,620.618,296.534,620.618C296.534,620.618,296.534,764.505,296.534,764.505C296.534,877.816,392.76,970.033,511.032,970.033C629.28,970.033,725.506,877.816,725.506,764.505C725.506,764.505,725.506,620.618,725.506,620.618C725.506,620.618,725.506,620.618,725.506,620.618C725.506,620.618,725.506,620.618,725.506,620.618" class="sdk-icon_lock_fill"/><glyph unicode="&#x0058;" d="M787.066,621.117C787.066,621.117,764.416,621.117,764.416,621.117C764.416,621.117,764.416,764.989,764.416,764.989C764.416,908.081,650.801,1024.5,511.171,1024.5C371.492,1024.5,257.877,908.081,257.877,764.989C257.877,764.989,257.877,621.117,257.877,621.117C257.877,621.117,237.275,621.117,237.275,621.117C194.365,621.117,159.5,585.375,159.5,541.465C159.5,541.465,159.5,80.153,159.5,80.153C159.5,36.242,194.365,0.5,237.275,0.5C237.275,0.5,787.066,0.5,787.066,0.5C829.927,0.5,864.817,36.242,864.817,80.153C864.817,80.153,864.817,541.465,864.817,541.465C864.817,585.375,829.927,621.117,787.066,621.117C787.066,621.117,787.066,621.117,787.066,621.117C787.066,621.117,787.066,621.117,787.066,621.117M310.564,764.989C310.564,878.336,400.554,970.521,511.171,970.521C621.738,970.521,711.729,878.336,711.729,764.989C711.729,764.989,711.729,621.117,711.729,621.117C711.729,621.117,310.564,621.117,310.564,621.117C310.564,621.117,310.564,764.989,310.564,764.989C310.564,764.989,310.564,764.989,310.564,764.989C310.564,764.989,310.564,764.989,310.564,764.989M812.105,80.153C812.105,66.012,800.89,54.504,787.066,54.504C787.066,54.504,237.275,54.504,237.275,54.504C223.427,54.504,212.187,66.012,212.187,80.153C212.187,80.153,212.187,541.465,212.187,541.465C212.187,555.606,223.427,567.113,237.275,567.113C237.275,567.113,787.066,567.113,787.066,567.113C800.89,567.113,812.105,555.606,812.105,541.465C812.105,541.465,812.105,80.153,812.105,80.153C812.105,80.153,812.105,80.153,812.105,80.153C812.105,80.153,812.105,80.153,812.105,80.153M511.634,427.386C483.986,427.386,461.58,404.444,461.58,376.113C461.58,357.73,471.089,341.736,485.303,332.666C485.303,332.666,485.303,230.095,485.303,230.095C485.303,215.174,497.079,203.106,511.634,203.106C526.214,203.106,537.99,215.174,537.99,230.095C537.99,230.095,537.99,332.666,537.99,332.666C552.18,341.736,561.688,357.73,561.688,376.113C561.688,404.444,539.258,427.386,511.634,427.386" class="sdk-icon_lock_stroke"/><glyph unicode="&#x0059;" d="M512,1024C229.23,1024,0,794.77,0,512C0,229.23,229.23,0,512,0C794.77,0,1024,229.23,1024,512C1024,794.77,794.77,1024,512,1024C512,1024,512,1024,512,1024C512,1024,512,1024,512,1024M344.04,506.49C331.02,484.011,334.555,431.665,341.016,406.942C342.674,400.677,339.334,394.191,333.263,391.875C333.263,391.875,288.841,374.784,288.841,374.784C285.501,373.492,281.795,373.662,278.577,375.223C275.383,376.783,272.994,379.611,271.97,383.025C258.584,427.813,257.146,501.931,280.869,542.842C219.794,577.95,198.851,655.75,234.106,716.581C269.385,777.411,347.477,798.257,408.552,763.124C408.552,763.124,471.796,726.747,471.796,726.747C471.796,726.747,344.113,506.441,344.113,506.441C344.113,506.441,344.04,506.49,344.04,506.49C344.04,506.49,344.04,506.49,344.04,506.49C344.04,506.49,344.04,506.49,344.04,506.49M805.839,660.382C786.042,601.381,761.49,544.232,732.818,489.326C748.178,472.235,751.762,446.781,739.645,425.838C727.503,404.894,703.561,395.288,681.033,400.018C647.631,347.794,610.231,298.057,568.808,251.49C562.859,244.76,553.521,242.176,544.939,244.858C543.33,245.37,541.769,246.053,540.331,246.882C534.187,250.417,529.969,256.658,529.115,263.875C518.266,355.23,467.139,432.372,391.436,478.696C391.436,478.696,371.419,490.203,371.419,490.203C371.419,490.203,499.858,711.826,499.858,711.826C576.658,673.694,693.638,653.531,775.192,688.469C781.897,691.322,789.455,690.81,795.599,687.275C797.038,686.446,798.403,685.446,799.646,684.3C806.254,678.254,808.667,668.867,805.839,660.382C805.839,660.382,805.839,660.382,805.839,660.382C805.839,660.382,805.839,660.382,805.839,660.382" class="sdk-icon_megaphone_off_fill"/><glyph unicode="&#x005a;" d="M512,1024C229.23,1024,0,794.77,0,512C0,229.23,229.23,0,512,0C794.77,0,1024,229.23,1024,512C1024,794.77,794.77,1024,512,1024C512,1024,512,1024,512,1024C512,1024,512,1024,512,1024M344.04,506.49C331.02,484.011,334.555,431.665,341.016,406.942C342.674,400.677,339.334,394.191,333.263,391.875C333.263,391.875,288.841,374.784,288.841,374.784C285.501,373.492,281.795,373.662,278.577,375.223C275.383,376.783,272.994,379.611,271.97,383.025C258.584,427.813,257.146,501.931,280.869,542.842C219.794,577.95,198.851,655.75,234.106,716.581C269.385,777.411,347.477,798.257,408.552,763.124C408.552,763.124,471.796,726.747,471.796,726.747C471.796,726.747,344.113,506.441,344.113,506.441C344.113,506.441,344.04,506.49,344.04,506.49C344.04,506.49,344.04,506.49,344.04,506.49C344.04,506.49,344.04,506.49,344.04,506.49M805.839,660.382C786.042,601.381,761.49,544.232,732.818,489.326C748.178,472.235,751.762,446.781,739.645,425.838C727.503,404.894,703.561,395.288,681.033,400.018C647.631,347.794,610.231,298.057,568.808,251.49C562.859,244.76,553.521,242.176,544.939,244.858C543.33,245.37,541.769,246.053,540.331,246.882C534.187,250.417,529.969,256.658,529.115,263.875C518.266,355.23,467.139,432.372,391.436,478.696C391.436,478.696,371.419,490.203,371.419,490.203C371.419,490.203,499.858,711.826,499.858,711.826C576.658,673.694,693.638,653.531,775.192,688.469C781.897,691.322,789.455,690.81,795.599,687.275C797.038,686.446,798.403,685.446,799.646,684.3C806.254,678.254,808.667,668.867,805.839,660.382C805.839,660.382,805.839,660.382,805.839,660.382C805.839,660.382,805.839,660.382,805.839,660.382" class="sdk-icon_megaphone_off_stroke"/><glyph unicode="&#x0061;" d="M512.5,1024.5C229.73,1024.5,0.5,795.27,0.5,512.5C0.5,229.73,229.73,0.5,512.5,0.5C795.27,0.5,1024.5,229.73,1024.5,512.5C1024.5,795.27,795.27,1024.5,512.5,1024.5C512.5,1024.5,512.5,1024.5,512.5,1024.5C512.5,1024.5,512.5,1024.5,512.5,1024.5M560.604,224.098C560.018,220.416,557.922,217.149,554.85,215.101C551.778,213.004,547.999,212.346,544.39,213.175C497.042,224.439,429.483,261.718,404.956,304.36C341.516,267.593,260.498,289.219,224.025,352.658C187.526,416.098,209.372,497.335,272.835,534.126C272.835,534.126,338.542,572.209,338.542,572.209C338.542,572.209,470.687,342.443,470.687,342.443C470.687,342.443,470.614,342.418,470.614,342.418C484.096,318.964,533.102,294.924,558.775,287.878C565.285,286.098,569.356,279.711,568.308,273.03C568.308,273.03,560.604,224.098,560.604,224.098C560.604,224.098,560.604,224.098,560.604,224.098C560.604,224.098,560.604,224.098,560.604,224.098M810.996,387.328C809.704,386.158,808.29,385.11,806.778,384.232C800.415,380.55,792.564,379.99,785.615,382.964C697.625,420.754,601.49,414.806,520.326,370.676C520.326,370.676,499.505,358.607,499.505,358.607C499.505,358.607,366.604,589.739,366.604,589.739C440.942,639.135,520.009,734.074,530.956,825.771C531.858,833.305,536.271,839.839,542.659,843.52C544.146,844.398,545.756,845.105,547.438,845.641C556.337,848.445,566.041,845.763,572.209,838.79C615.095,790.223,653.836,738.365,688.409,683.922C711.79,688.872,736.634,678.876,749.19,657.03C761.746,635.185,757.943,608.61,741.949,590.763C771.67,533.492,797.026,473.881,817.457,412.294C820.407,403.444,817.896,393.667,810.996,387.328C810.996,387.328,810.996,387.328,810.996,387.328C810.996,387.328,810.996,387.328,810.996,387.328" class="sdk-icon_megaphone_on_fill"/><glyph unicode="&#x0062;" d="M512.5,1024.5C229.73,1024.5,0.5,795.27,0.5,512.5C0.5,229.73,229.73,0.5,512.5,0.5C795.27,0.5,1024.5,229.73,1024.5,512.5C1024.5,795.27,795.27,1024.5,512.5,1024.5C512.5,1024.5,512.5,1024.5,512.5,1024.5C512.5,1024.5,512.5,1024.5,512.5,1024.5M560.604,224.098C560.018,220.416,557.922,217.149,554.85,215.101C551.778,213.004,547.999,212.346,544.39,213.175C497.042,224.439,429.483,261.718,404.956,304.36C341.516,267.593,260.498,289.219,224.025,352.658C187.526,416.098,209.372,497.335,272.835,534.126C272.835,534.126,338.542,572.209,338.542,572.209C338.542,572.209,470.687,342.443,470.687,342.443C470.687,342.443,470.614,342.418,470.614,342.418C484.096,318.964,533.102,294.924,558.775,287.878C565.285,286.098,569.356,279.711,568.308,273.03C568.308,273.03,560.604,224.098,560.604,224.098C560.604,224.098,560.604,224.098,560.604,224.098C560.604,224.098,560.604,224.098,560.604,224.098M810.996,387.328C809.704,386.158,808.29,385.11,806.778,384.232C800.415,380.55,792.564,379.99,785.615,382.964C697.625,420.754,601.49,414.806,520.326,370.676C520.326,370.676,499.505,358.607,499.505,358.607C499.505,358.607,366.604,589.739,366.604,589.739C440.942,639.135,520.009,734.074,530.956,825.771C531.858,833.305,536.271,839.839,542.659,843.52C544.146,844.398,545.756,845.105,547.438,845.641C556.337,848.445,566.041,845.763,572.209,838.79C615.095,790.223,653.836,738.365,688.409,683.922C711.79,688.872,736.634,678.876,749.19,657.03C761.746,635.185,757.943,608.61,741.949,590.763C771.67,533.492,797.026,473.881,817.457,412.294C820.407,403.444,817.896,393.667,810.996,387.328C810.996,387.328,810.996,387.328,810.996,387.328C810.996,387.328,810.996,387.328,810.996,387.328" class="sdk-icon_megaphone_on_stroke"/><glyph unicode="&#x0063;" d="M512.5,1024.5C230.193,1024.5,0.5,794.807,0.5,512.476C0.5,230.169,230.193,0.5,512.5,0.5C794.807,0.5,1024.5,230.169,1024.5,512.476C1024.5,794.807,794.807,1024.5,512.5,1024.5C512.5,1024.5,512.5,1024.5,512.5,1024.5C512.5,1024.5,512.5,1024.5,512.5,1024.5M714.764,486.047C714.764,486.047,536.71,486.047,536.71,486.047C536.71,486.047,536.71,310.236,536.71,310.236C536.71,295.631,524.861,283.807,510.257,283.807C495.653,283.807,483.828,295.631,483.828,310.236C483.828,310.236,483.828,486.047,483.828,486.047C483.828,486.047,310.236,486.047,310.236,486.047C295.656,486.047,283.807,497.871,283.807,512.476C283.807,527.08,295.656,538.905,310.236,538.905C310.236,538.905,483.828,538.905,483.828,538.905C483.828,538.905,483.828,714.74,483.828,714.74C483.828,729.344,495.653,741.169,510.257,741.169C524.861,741.169,536.71,729.344,536.71,714.74C536.71,714.74,536.71,538.905,536.71,538.905C536.71,538.905,714.764,538.905,714.764,538.905C729.369,538.905,741.193,527.08,741.193,512.476C741.193,497.871,729.369,486.047,714.764,486.047C714.764,486.047,714.764,486.047,714.764,486.047C714.764,486.047,714.764,486.047,714.764,486.047" class="sdk-icon_morecircle_fill"/><glyph unicode="&#x0064;" d="M512,1024.476C229.693,1024.476,0,794.783,0,512.476C0,230.169,229.693,0.5,512,0.5C794.307,0.5,1024,230.169,1024,512.476C1024,794.783,794.307,1024.476,512,1024.476C512,1024.476,512,1024.476,512,1024.476C512,1024.476,512,1024.476,512,1024.476M512,53.358C258.828,53.358,52.882,259.328,52.882,512.476C52.882,765.647,258.828,971.593,512,971.593C765.147,971.593,971.118,765.647,971.118,512.476C971.118,259.328,765.147,53.358,512,53.358C512,53.358,512,53.358,512,53.358C512,53.358,512,53.358,512,53.358M717.166,538.929C717.166,538.929,536.552,538.929,536.552,538.929C536.552,538.929,536.552,714.716,536.552,714.716C536.552,729.32,524.532,741.169,509.733,741.169C494.909,741.169,482.914,729.32,482.914,714.716C482.914,714.716,482.914,538.929,482.914,538.929C482.914,538.929,306.834,538.929,306.834,538.929C292.035,538.929,280.015,527.08,280.015,512.476C280.015,497.871,292.035,486.022,306.834,486.022C306.834,486.022,482.914,486.022,482.914,486.022C482.914,486.022,482.914,310.211,482.914,310.211C482.914,295.607,494.909,283.782,509.733,283.782C524.532,283.782,536.552,295.607,536.552,310.211C536.552,310.211,536.552,486.022,536.552,486.022C536.552,486.022,717.166,486.022,717.166,486.022C731.989,486.022,743.985,497.871,743.985,512.476C743.985,527.08,731.989,538.929,717.166,538.929" class="sdk-icon_morecircle_stroke"/><glyph unicode="&#x0065;" d="M842.058,410.146C827.791,422.502,806.287,421.137,793.862,406.938C793.862,406.938,546.464,124.86,546.464,124.86C546.464,124.86,546.464,989.867,546.464,989.867C546.464,1008.708,531.172,1024,512.33,1024C493.489,1024,478.197,1008.708,478.197,989.867C478.197,989.867,478.197,124.86,478.197,124.86C478.197,124.86,230.799,406.938,230.799,406.938C218.306,421.137,196.87,422.502,182.602,410.146C168.471,397.722,167.037,376.149,179.462,361.95C179.462,361.95,486.662,11.605,486.662,11.605C486.867,11.332,487.276,11.264,487.481,10.991C489.871,8.465,492.738,6.622,495.741,4.915C496.765,4.301,497.516,3.413,498.609,2.935C502.841,1.092,507.415,0,512.33,0C517.245,0,521.819,1.092,526.052,2.935C527.144,3.413,527.895,4.301,528.919,4.915C531.923,6.622,534.79,8.465,537.179,10.991C537.384,11.264,537.794,11.332,537.999,11.605C537.999,11.605,845.199,361.95,845.199,361.95C857.623,376.149,856.189,397.722,842.058,410.146" class="sdk-icon_moremsgs_fill"/><glyph unicode="&#x0066;" d="M842.058,410.146C827.791,422.502,806.287,421.137,793.862,406.938C793.862,406.938,546.464,124.86,546.464,124.86C546.464,124.86,546.464,989.867,546.464,989.867C546.464,1008.708,531.172,1024,512.33,1024C493.489,1024,478.197,1008.708,478.197,989.867C478.197,989.867,478.197,124.86,478.197,124.86C478.197,124.86,230.799,406.938,230.799,406.938C218.306,421.137,196.87,422.502,182.602,410.146C168.471,397.722,167.037,376.149,179.462,361.95C179.462,361.95,486.662,11.605,486.662,11.605C486.867,11.332,487.276,11.264,487.481,10.991C489.871,8.465,492.738,6.622,495.741,4.915C496.765,4.301,497.516,3.413,498.609,2.935C502.841,1.092,507.415,0,512.33,0C517.245,0,521.819,1.092,526.052,2.935C527.144,3.413,527.895,4.301,528.919,4.915C531.923,6.622,534.79,8.465,537.179,10.991C537.384,11.264,537.794,11.332,537.999,11.605C537.999,11.605,845.199,361.95,845.199,361.95C857.623,376.149,856.189,397.722,842.058,410.146" class="sdk-icon_moremsgs_stroke"/><glyph unicode="&#x0067;" d="M777.448,1017.365C777.448,1017.365,206.849,529.743,206.849,529.743C195.717,520.197,195.717,504.77,206.849,495.257C206.849,495.257,777.448,7.635,777.448,7.635C782.998,2.845,790.331,0.5,797.598,0.5C804.898,0.5,812.198,2.845,817.747,7.635C828.912,17.148,828.912,32.574,817.747,42.121C817.747,42.121,267.397,512.5,267.397,512.5C267.397,512.5,817.747,982.879,817.747,982.879C828.912,992.393,828.912,1007.819,817.747,1017.365C806.649,1026.878,788.58,1026.878,777.448,1017.365" class="sdk-icon_nav_back_fill"/><glyph unicode="&#x0068;" d="M763.476,1017.365C763.476,1017.365,222.903,529.743,222.903,529.743C212.366,520.197,212.366,504.77,222.903,495.257C222.903,495.257,763.476,7.635,763.476,7.635C768.761,2.845,775.665,0.5,782.569,0.5C789.472,0.5,796.409,2.845,801.661,7.635C812.231,17.148,812.231,32.574,801.661,42.121C801.661,42.121,280.28,512.5,280.28,512.5C280.28,512.5,801.661,982.879,801.661,982.879C812.231,992.393,812.231,1007.819,801.661,1017.365C791.124,1026.878,774.013,1026.878,763.476,1017.365" class="sdk-icon_nav_back_stroke"/><glyph unicode="&#x0069;" d="M561.52,0C552.403,0,543.319,3.345,536.268,9.97C536.268,9.97,33.322,487.007,33.322,487.007C26.403,493.599,22.5,502.618,22.5,511.997C22.5,521.409,26.403,530.461,33.322,537.02C33.322,537.02,536.268,1014.057,536.268,1014.057C550.599,1027.503,573.425,1027.306,587.297,1013.5C601.235,999.66,600.973,977.556,586.74,964.012C586.74,964.012,110.161,511.997,110.161,511.997C110.161,511.997,586.74,60.015,586.74,60.015C600.973,46.503,601.235,24.367,587.297,10.527C580.246,3.542,570.867,0,561.52,0M966.179,477.005C966.179,477.005,58.575,477.005,58.575,477.005C38.635,477.005,22.5,492.713,22.5,511.997C22.5,531.346,38.635,547.022,58.575,547.022C58.575,547.022,966.179,547.022,966.179,547.022C986.118,547.022,1002.253,531.346,1002.253,511.997C1002.253,492.713,986.118,477.005,966.179,477.005" class="sdk-icon_nav_backarrow_fill"/><glyph unicode="&#x006a;" d="M561.52,0C552.403,0,543.319,3.345,536.268,9.97C536.268,9.97,33.322,487.007,33.322,487.007C26.403,493.599,22.5,502.618,22.5,511.997C22.5,521.409,26.403,530.461,33.322,537.02C33.322,537.02,536.268,1014.057,536.268,1014.057C550.599,1027.503,573.425,1027.306,587.297,1013.5C601.235,999.66,600.973,977.556,586.74,964.012C586.74,964.012,110.161,511.997,110.161,511.997C110.161,511.997,586.74,60.015,586.74,60.015C600.973,46.503,601.235,24.367,587.297,10.527C580.246,3.542,570.867,0,561.52,0M966.179,477.005C966.179,477.005,58.575,477.005,58.575,477.005C38.635,477.005,22.5,492.713,22.5,511.997C22.5,531.346,38.635,547.022,58.575,547.022C58.575,547.022,966.179,547.022,966.179,547.022C986.118,547.022,1002.253,531.346,1002.253,511.997C1002.253,492.713,986.118,477.005,966.179,477.005" class="sdk-icon_nav_backarrow_stroke"/><glyph unicode="&#x006b;" d="M1011.481,854.844C995.427,870.799,967.515,870.832,951.362,854.844C951.362,854.844,352.851,259.801,352.851,259.801C352.851,259.801,72.572,538.593,72.572,538.593C56.485,554.614,28.474,554.548,12.486,538.593C4.393,530.566,0,519.93,0,508.567C0,497.27,4.393,486.6,12.486,478.574C12.486,478.574,322.824,169.92,322.824,169.92C330.818,161.926,341.521,157.5,352.851,157.5C364.181,157.5,374.85,161.893,382.943,169.887C382.943,169.887,1011.481,794.824,1011.481,794.824C1019.541,802.851,1024,813.521,1024,824.851C1024,836.214,1019.541,846.85,1011.481,854.844" class="sdk-icon_nav_checkmark_fill"/><glyph unicode="&#x006c;" d="M1011.481,854.844C995.427,870.799,967.515,870.832,951.362,854.844C951.362,854.844,352.851,259.801,352.851,259.801C352.851,259.801,72.572,538.593,72.572,538.593C56.485,554.614,28.474,554.548,12.486,538.593C4.393,530.566,0,519.93,0,508.567C0,497.27,4.393,486.6,12.486,478.574C12.486,478.574,322.824,169.92,322.824,169.92C330.818,161.926,341.521,157.5,352.851,157.5C364.181,157.5,374.85,161.893,382.943,169.887C382.943,169.887,1011.481,794.824,1011.481,794.824C1019.541,802.851,1024,813.521,1024,824.851C1024,836.214,1019.541,846.85,1011.481,854.844" class="sdk-icon_nav_checkmark_stroke"/><glyph unicode="&#x006d;" d="M865.92,1024C865.92,1024,158.08,1024,158.08,1024C70.912,1024,0,953.12,0,865.92C0,865.92,0,158.08,0,158.08C0,70.912,70.912,0,158.08,0C158.08,0,865.92,0,865.92,0C953.088,0,1024,70.912,1024,158.08C1024,158.08,1024,865.92,1024,865.92C1024,953.12,953.088,1024,865.92,1024C865.92,1024,865.92,1024,865.92,1024C865.92,1024,865.92,1024,865.92,1024M745.088,607.648C745.088,607.648,498.688,361.248,498.688,361.248C491.296,353.824,481.44,349.76,470.976,349.76C460.48,349.76,450.624,353.824,443.232,361.248C443.232,361.248,278.944,525.504,278.944,525.504C263.648,540.832,263.648,565.696,278.944,580.992C293.696,595.776,319.52,595.872,334.4,580.96C334.4,580.96,470.944,444.448,470.944,444.448C470.944,444.448,689.632,663.136,689.632,663.136C704.448,677.984,730.304,677.952,745.088,663.136C760.384,647.84,760.384,622.944,745.088,607.648C745.088,607.648,745.088,607.648,745.088,607.648C745.088,607.648,745.088,607.648,745.088,607.648" class="sdk-icon_nav_checkmarkbox_fill"/><glyph unicode="&#x006e;" d="M865.92,1024C865.92,1024,158.08,1024,158.08,1024C70.912,1024,0,953.12,0,865.92C0,865.92,0,158.08,0,158.08C0,70.88,70.912,0,158.08,0C158.08,0,865.92,0,865.92,0C953.088,0,1024,70.88,1024,158.08C1024,158.08,1024,865.92,1024,865.92C1024,953.12,953.088,1024,865.92,1024C865.92,1024,865.92,1024,865.92,1024C865.92,1024,865.92,1024,865.92,1024M865.92,80.192C865.92,80.192,158.08,80.192,158.08,80.192C115.136,80.192,80.224,115.136,80.224,158.08C80.224,158.08,80.224,865.92,80.224,865.92C80.224,908.864,115.136,943.808,158.08,943.808C158.08,943.808,865.92,943.808,865.92,943.808C908.864,943.808,943.776,908.864,943.776,865.92C943.776,865.92,943.776,158.08,943.776,158.08C943.776,115.136,908.864,80.192,865.92,80.192C865.92,80.192,865.92,80.192,865.92,80.192C865.92,80.192,865.92,80.192,865.92,80.192M689.632,663.136C689.632,663.136,470.944,444.448,470.944,444.448C470.944,444.448,334.4,580.96,334.4,580.96C319.52,595.872,293.696,595.776,278.944,580.992C263.648,565.696,263.648,540.832,278.944,525.504C278.944,525.504,443.232,361.248,443.232,361.248C450.624,353.824,460.48,349.76,470.976,349.76C481.44,349.76,491.296,353.824,498.688,361.248C498.688,361.248,745.088,607.648,745.088,607.648C760.384,622.944,760.384,647.84,745.088,663.136C730.304,677.952,704.448,677.984,689.632,663.136" class="sdk-icon_nav_checkmarkbox_stroke"/><glyph unicode="&#x006f;" d="M687.551,866.674C687.551,866.674,154.174,328.121,154.174,328.121C154.174,328.121,325.451,155.172,325.451,155.172C325.451,155.172,858.829,693.693,858.829,693.693C858.829,693.693,687.551,866.674,687.551,866.674M97.178,270.546C97.178,270.546,86.537,259.842,86.537,259.842C86.537,259.842,2.281,27.71,2.281,27.71C-3.345,12.216,4.981,0,18.515,0C21.44,0,24.623,0.579,27.934,1.8C27.934,1.8,257.879,86.925,257.879,86.925C257.879,86.925,268.455,97.629,268.455,97.629C268.455,97.629,97.178,270.546,97.178,270.546M1009.532,932.35C1009.532,932.35,938.167,1004.391,938.167,1004.391C925.115,1017.603,907.274,1024,887.986,1024C860.886,1024,830.893,1011.399,807.169,987.449C807.169,987.449,744.58,924.217,744.58,924.217C744.58,924.217,915.857,751.268,915.857,751.268C915.857,751.268,996.931,833.113,996.931,833.113C1027.567,864.038,1033.192,908.465,1009.532,932.35" class="sdk-icon_nav_edit_fill"/><glyph unicode="&#x0070;" d="M1024.479,815.255C1023.932,844.791,1012.041,872.688,990.99,893.835C990.99,893.835,904.728,980.418,904.728,980.418C878.47,1006.837,843.695,1021.396,806.864,1021.396C771.414,1021.396,738.311,1007.769,713.692,983.054C713.692,983.054,57.988,324.457,57.988,324.457C57.988,324.457,2.162,83.22,2.162,83.22C-2.273,63.647,2.258,43.431,14.696,27.747C27.166,12.031,45.71,3,65.605,3C70.554,3,75.536,3.579,80.453,4.736C80.453,4.736,320.597,60.722,320.597,60.722C320.597,60.722,926.422,669.182,926.422,669.182C926.422,669.214,926.454,669.214,926.454,669.214C926.454,669.214,926.486,669.246,926.486,669.246C926.486,669.246,992.886,735.967,992.886,735.967C1013.841,756.954,1025.057,785.14,1024.479,815.255C1024.479,815.255,1024.479,815.255,1024.479,815.255C1024.479,815.255,1024.479,815.255,1024.479,815.255M822.419,666.29C822.419,666.29,664.455,824.286,664.455,824.286C664.455,824.286,693.059,852.922,693.059,852.922C693.059,852.922,851.055,694.926,851.055,694.926C851.055,694.926,822.419,666.29,822.419,666.29C822.419,666.29,822.419,666.29,822.419,666.29C822.419,666.29,822.419,666.29,822.419,666.29M285.051,128.793C285.051,128.793,127.087,286.822,127.087,286.822C127.087,286.822,606.379,766.275,606.379,766.275C606.379,766.275,764.376,608.246,764.376,608.246C764.376,608.246,285.051,128.793,285.051,128.793C285.051,128.793,285.051,128.793,285.051,128.793C285.051,128.793,285.051,128.793,285.051,128.793M92.312,205.477C92.312,205.477,203.739,94.018,203.739,94.018C203.739,94.018,58.63,60.272,58.63,60.272C58.63,60.272,92.312,205.477,92.312,205.477C92.312,205.477,92.312,205.477,92.312,205.477C92.312,205.477,92.312,205.477,92.312,205.477M909.099,752.969C909.099,752.969,751.134,910.998,751.134,910.998C751.134,910.998,774.05,933.945,774.05,933.945C799.6,959.946,827.529,965.313,857.387,931.278C857.387,931.278,943.809,844.341,943.809,844.341C961.389,827.821,960.04,801.467,947.409,788.804C947.409,788.804,909.099,752.969,909.099,752.969C909.099,752.969,909.099,752.969,909.099,752.969" class="sdk-icon_nav_edit_stroke"/><glyph unicode="&#x0071;" d="M0,768C0,768,513.984,1024,513.984,1024C513.984,1024,1024,768,1024,768C1024,768,1024,95.712,1024,95.712C1024,42.848,981.312,0,928.192,0C928.192,0,669.984,0,669.984,0C669.984,0,669.984,446.016,669.984,446.016C669.984,446.016,353.984,446.016,353.984,446.016C353.984,446.016,353.984,0,353.984,0C353.984,0,95.808,0,95.808,0C42.88,0,0,42.944,0,95.712C0,95.712,0,768,0,768C0,768,0,768,0,768" class="sdk-icon_nav_home_fill"/><glyph unicode="&#x0072;" d="M927.848,0.5C927.848,0.5,638.499,0.5,638.499,0.5C638.499,0.5,638.499,414.517,638.499,414.517C638.499,414.517,385.839,414.517,385.839,414.517C385.839,414.517,385.839,0.5,385.839,0.5C385.839,0.5,96.81,0.5,96.81,0.5C43.952,0.5,1,43.484,1,96.31C1,96.31,1,768.804,1,768.804C1,768.804,512.009,1024.5,512.009,1024.5C512.009,1024.5,1023.626,768.836,1023.626,768.836C1023.626,768.836,1023.626,96.31,1023.626,96.31C1023.626,43.484,980.674,0.5,927.848,0.5C927.848,0.5,927.848,0.5,927.848,0.5C927.848,0.5,927.848,0.5,927.848,0.5M702.415,64.416C702.415,64.416,927.848,64.416,927.848,64.416C945.424,64.416,959.742,78.701,959.742,96.31C959.742,96.31,959.742,729.303,959.742,729.303C959.742,729.303,512.009,953.01,512.009,953.01C512.009,953.01,64.884,729.335,64.884,729.335C64.884,729.335,64.884,96.31,64.884,96.31C64.884,78.701,79.201,64.416,96.81,64.416C96.81,64.416,321.891,64.416,321.891,64.416C321.891,64.416,321.891,478.433,321.891,478.433C321.891,478.433,702.415,478.433,702.415,478.433C702.415,478.433,702.415,64.416,702.415,64.416C702.415,64.416,702.415,64.416,702.415,64.416C702.415,64.416,702.415,64.416,702.415,64.416" class="sdk-icon_nav_home_stroke"/><glyph unicode="&#x0073;" d="M512,1024C229.696,1024,0,794.304,0,512C0,229.664,229.696,0,512,0C794.368,0,1024,229.664,1024,512C1024,794.304,794.368,1024,512,1024C512,1024,512,1024,512,1024C512,1024,512,1024,512,1024M550.112,289.504C550.112,270.656,535.296,255.392,516.96,255.392C498.688,255.392,483.872,270.656,483.872,289.504C483.872,289.504,483.872,526.72,483.872,526.72C483.872,545.536,498.688,560.832,516.96,560.832C535.296,560.832,550.112,545.536,550.112,526.72C550.112,526.72,550.112,289.504,550.112,289.504C550.112,289.504,550.112,289.504,550.112,289.504C550.112,289.504,550.112,289.504,550.112,289.504M516.896,627.2C489.248,627.2,466.848,649.536,466.848,677.12C466.848,704.672,489.248,727.008,516.896,727.008C544.544,727.008,566.976,704.672,566.976,677.12C566.976,649.536,544.544,627.2,516.896,627.2C516.896,627.2,516.896,627.2,516.896,627.2C516.896,627.2,516.896,627.2,516.896,627.2" class="sdk-icon_nav_info_fill"/><glyph unicode="&#x0074;" d="M512.5,0C230.196,0,0.5,229.696,0.5,512C0.5,794.304,230.196,1024,512.5,1024C794.868,1024,1024.5,794.304,1024.5,512C1024.5,229.696,794.868,0,512.5,0C512.5,0,512.5,0,512.5,0C512.5,0,512.5,0,512.5,0M512.5,954.048C268.756,954.048,70.452,755.744,70.452,512C70.452,268.256,268.756,69.984,512.5,69.984C756.276,69.984,954.58,268.256,954.58,512C954.58,755.744,756.276,954.048,512.5,954.048C512.5,954.048,512.5,954.048,512.5,954.048C512.5,954.048,512.5,954.048,512.5,954.048M512.564,276.192C494.292,276.192,479.476,291.456,479.476,310.304C479.476,310.304,479.476,547.52,479.476,547.52C479.476,566.368,494.292,581.632,512.564,581.632C530.9,581.632,545.716,566.368,545.716,547.52C545.716,547.52,545.716,310.304,545.716,310.304C545.716,291.456,530.9,276.192,512.564,276.192M512.5,747.808C484.852,747.808,462.452,725.472,462.452,697.92C462.452,670.336,484.852,648,512.5,648C540.148,648,562.58,670.336,562.58,697.92C562.58,725.472,540.148,747.808,512.5,747.808" class="sdk-icon_nav_info_stroke"/><glyph unicode="&#x0075;" d="M987.929,841.429C987.929,841.429,37.071,841.429,37.071,841.429C16.847,841.429,0.5,857.776,0.5,878C0.5,898.187,16.847,914.571,37.071,914.571C37.071,914.571,987.929,914.571,987.929,914.571C1008.153,914.571,1024.5,898.187,1024.5,878C1024.5,857.776,1008.153,841.429,987.929,841.429M987.929,475.714C987.929,475.714,37.071,475.714,37.071,475.714C16.847,475.714,0.5,492.062,0.5,512.286C0.5,532.473,16.847,548.857,37.071,548.857C37.071,548.857,987.929,548.857,987.929,548.857C1008.153,548.857,1024.5,532.473,1024.5,512.286C1024.5,492.062,1008.153,475.714,987.929,475.714M987.929,110C987.929,110,37.071,110,37.071,110C16.847,110,0.5,126.347,0.5,146.571C0.5,166.759,16.847,183.143,37.071,183.143C37.071,183.143,987.929,183.143,987.929,183.143C1008.153,183.143,1024.5,166.759,1024.5,146.571C1024.5,126.347,1008.153,110,987.929,110" class="sdk-icon_nav_menu_fill"/><glyph unicode="&#x0076;" d="M987.929,841.429C987.929,841.429,37.071,841.429,37.071,841.429C16.847,841.429,0.5,857.776,0.5,878C0.5,898.187,16.847,914.571,37.071,914.571C37.071,914.571,987.929,914.571,987.929,914.571C1008.153,914.571,1024.5,898.187,1024.5,878C1024.5,857.776,1008.153,841.429,987.929,841.429M987.929,475.714C987.929,475.714,37.071,475.714,37.071,475.714C16.847,475.714,0.5,492.062,0.5,512.286C0.5,532.473,16.847,548.857,37.071,548.857C37.071,548.857,987.929,548.857,987.929,548.857C1008.153,548.857,1024.5,532.473,1024.5,512.286C1024.5,492.062,1008.153,475.714,987.929,475.714M987.929,110C987.929,110,37.071,110,37.071,110C16.847,110,0.5,126.347,0.5,146.571C0.5,166.759,16.847,183.143,37.071,183.143C37.071,183.143,987.929,183.143,987.929,183.143C1008.153,183.143,1024.5,166.759,1024.5,146.571C1024.5,126.347,1008.153,110,987.929,110" class="sdk-icon_nav_menu_stroke"/><glyph unicode="&#x0077;" d="M255.383,765.178C255.383,908.034,371.669,1024,514.524,1024C657.38,1024,773.346,908.034,773.346,765.178C773.346,622.323,657.38,506.037,514.524,506.037C371.669,506.037,255.383,622.323,255.383,765.178M973.753,112.385C973.753,112.385,973.753,107.685,973.753,107.685C973.753,3.133,516.667,0,511.967,0C373.172,0,50.5,10.679,50.5,107.685C50.5,107.685,50.5,112.385,50.5,112.385C50.5,179.241,50.18,303.872,136.028,404.011C180.822,456.127,246.91,485.958,317.731,485.958C349.384,485.958,380.685,480.299,411.092,469.012C428.933,462.106,481.56,456.127,511.967,456.127C542.661,456.127,594.969,462.106,613.161,469.012C643.536,480.299,674.869,485.958,706.522,485.958C777.311,485.958,843.431,456.127,888.225,404.011C974.073,303.872,973.753,179.241,973.753,112.385" class="sdk-icon_nav_profile_fill"/><glyph unicode="&#x0078;" d="M512.003,510.24C653.155,510.24,768.003,625.472,768.003,767.136C768.003,908.768,653.155,1024,512.003,1024C370.819,1024,256.003,908.768,256.003,767.136C256.003,625.472,370.819,510.24,512.003,510.24C512.003,510.24,512.003,510.24,512.003,510.24C512.003,510.24,512.003,510.24,512.003,510.24M512.003,957.888C616.835,957.888,702.115,872.32,702.115,767.136C702.115,661.92,616.835,576.352,512.003,576.352C407.171,576.352,321.859,661.92,321.859,767.136C321.859,872.32,407.171,957.888,512.003,957.888C512.003,957.888,512.003,957.888,512.003,957.888C512.003,957.888,512.003,957.888,512.003,957.888M902.915,413.472C856.547,466.752,787.747,497.312,714.147,497.312C681.219,497.312,648.579,491.392,617.123,479.744C598.307,472.8,543.619,466.848,512.003,466.848C480.387,466.848,425.667,472.8,406.883,479.744C375.395,491.392,342.787,497.312,309.859,497.312C236.259,497.312,167.459,466.752,121.091,413.472C31.843,310.944,31.939,183.424,32.003,114.912C32.003,114.912,32.003,110.176,32.003,110.176C32.003,10.752,367.683,0,512.003,0C516.803,0,992.003,3.008,992.003,110.176C992.003,110.176,992.003,114.848,992.003,114.848C992.067,183.392,992.163,310.912,902.915,413.472C902.915,413.472,902.915,413.472,902.915,413.472C902.915,413.472,902.915,413.472,902.915,413.472M512.003,70.688C273.123,70.688,134.467,101.056,103.651,119.776C103.651,183.776,105.347,286.848,175.459,367.456C208.675,405.6,256.419,426.624,309.859,426.624C334.147,426.624,358.307,422.24,381.667,413.6C414.947,401.28,482.979,396.16,512.003,396.16C540.995,396.16,609.027,401.28,642.307,413.6C665.699,422.24,689.827,426.624,714.147,426.624C767.555,426.624,815.331,405.6,848.515,367.456C917.283,288.416,920.291,187.84,920.387,123.616C883.939,105.536,736.771,70.688,512.003,70.688C512.003,70.688,512.003,70.688,512.003,70.688C512.003,70.688,512.003,70.688,512.003,70.688" class="sdk-icon_nav_profile_stroke"/><glyph unicode="&#x0079;" d="M997.28,608.564C997.28,608.564,887.36,637.236,887.36,637.236C881.344,655.284,873.952,672.692,865.504,689.492C865.504,689.492,923.104,787.7,923.104,787.7C931.328,801.748,929.024,819.54,917.536,831.028C917.536,831.028,830.56,918.036,830.56,918.036C819.072,929.524,801.28,931.86,787.232,923.604C787.232,923.604,688.992,866.004,688.992,866.004C672.192,874.452,654.784,881.812,636.736,887.828C636.736,887.828,608.096,997.78,608.096,997.78C604,1013.524,589.792,1024.5,573.536,1024.5C573.536,1024.5,450.496,1024.5,450.496,1024.5C434.24,1024.5,420.032,1013.524,415.904,997.78C415.904,997.78,387.264,887.828,387.264,887.828C369.216,881.812,351.808,874.452,335.008,866.004C335.008,866.004,236.8,923.604,236.8,923.604C222.784,931.828,204.96,929.556,193.472,918.036C193.472,918.036,106.464,831.028,106.464,831.028C94.976,819.54,92.704,801.748,100.928,787.7C100.928,787.7,158.496,689.492,158.496,689.492C150.048,672.692,142.688,655.284,136.672,637.236C136.672,637.236,26.72,608.564,26.72,608.564C10.976,604.468,0,590.26,0,574.004C0,574.004,0,450.996,0,450.996C0,434.74,10.976,420.532,26.72,416.436C26.72,416.436,136.672,387.764,136.672,387.764C142.688,369.716,150.048,352.308,158.496,335.508C158.496,335.508,100.928,237.3,100.928,237.3C92.704,223.284,94.976,205.46,106.464,193.972C106.464,193.972,193.472,106.964,193.472,106.964C204.992,95.444,222.784,93.172,236.8,101.428C236.8,101.428,335.008,158.996,335.008,158.996C351.808,150.548,369.216,143.188,387.264,137.172C387.264,137.172,415.904,27.22,415.904,27.22C420.032,11.476,434.24,0.5,450.496,0.5C450.496,0.5,573.536,0.5,573.536,0.5C589.792,0.5,604,11.476,608.096,27.22C608.096,27.22,636.736,137.172,636.736,137.172C654.784,143.188,672.192,150.548,688.992,158.996C688.992,158.996,787.232,101.428,787.232,101.428C801.248,93.172,819.072,95.508,830.56,106.964C830.56,106.964,917.536,193.972,917.536,193.972C929.024,205.46,931.328,223.284,923.104,237.3C923.104,237.3,865.504,335.508,865.504,335.508C873.952,352.308,881.344,369.716,887.36,387.764C887.36,387.764,997.28,416.436,997.28,416.436C1013.024,420.532,1024,434.74,1024,450.996C1024,450.996,1024,574.004,1024,574.004C1024,590.26,1013.024,604.468,997.28,608.564C997.28,608.564,997.28,608.564,997.28,608.564C997.28,608.564,997.28,608.564,997.28,608.564M512,340.852C417.344,340.852,340.352,417.844,340.352,512.5C340.352,607.188,417.344,684.18,512,684.18C606.688,684.18,683.68,607.188,683.68,512.5C683.68,417.844,606.688,340.852,512,340.852C512,340.852,512,340.852,512,340.852C512,340.852,512,340.852,512,340.852" class="sdk-icon_nav_settings_fill"/></font>
</defs>
</svg>
